<svg version="1.1" id="Ebene_1" xmlns="http://www.w3.org/2000/svg" xmlns:xlink="http://www.w3.org/1999/xlink" x="0" y="0" viewBox="0 0 243.7 219.4" style="enable-background:new 0 0 243.7 219.4" xml:space="preserve">
    <style>
        .boardSt0{fill:#fbf2a8}.boardSt1{fill:#ebe7e7}.boardSt2{fill:#d9d8d7}.boardSt3{fill:#f1e9a1}.boardSt8{fill:#fff}.boardSt10,.boardSt8{fill-rule:evenodd;clip-rule:evenodd}.boardSt10,.boardSt11{stroke:#000;stroke-miterlimit:10}.boardSt13,.boardSt14{fill-rule:evenodd;clip-rule:evenodd}.boardSt13{fill:#fff;stroke:#fff;stroke-width:.15;stroke-miterlimit:10}.boardSt14{fill:#4e4e51}.boardSt15{fill:gold}.boardSt16{fill:#fff;stroke:#000;stroke-miterlimit:10}.boardSt17{fill:#c2c5c6}.boardSt19{fill:#b4b5b5}.boardSt21{fill:#d3cca5}.boardSt22{fill:#e6e2c2}.boardSt23{fill:#b6b083}.boardSt24{fill:#eae8e7}.boardSt27{fill:#d6d2d1}.boardSt28{fill:#181716}.boardSt29{opacity:.9;fill:#fff}.boardSt30{fill:#c8cccf}.boardSt31{fill:#59595a}.boardSt33,.boardSt37{fill:#6b6d6d}.boardSt37{display:inline}.ledOn{filter:url(#ledglow);fill:#f55}
    </style>
    <symbol id="Calliope_x5F_3_x5F_LED" viewBox="-1.1 -2.4 2.3 4.8">
        <g transform="rotate(90)">
            <path transform="rotate(-180)" class="boardSt0" d="M-1.1-1.6h2.3v3.1h-2.3z"/>
            <path transform="rotate(-180 0 -1.781)" class="boardSt1" d="M-1.1-2h2.3v.4h-2.3z"/>
            <path transform="rotate(-180 0 -2.2)" class="boardSt2" d="M-1.1-2.4h2.3v.4h-2.3z"/>
            <path transform="rotate(-180 0 2.2)" class="boardSt2" d="M-1.1 2h2.3v.4h-2.3z"/>
            <path transform="rotate(-180 0 1.781)" class="boardSt1" d="M-1.1 1.6h2.3V2h-2.3z"/>
            <circle class="boardSt3" r=".1"/>
        </g>
    </symbol>
    <symbol id="Calliope_x5F_3_x5F_Small_x5F_LED" viewBox="-0.7 -1.4 1.4 2.8">
        <path transform="rotate(-180 0 0)" class="boardSt0" d="M-.7-.9H.7V.9H-.7z"/>
        <path transform="rotate(-180 0 -1.048)" class="boardSt1" d="M-.7-1.2H.7v.2H-.7z"/>
        <path transform="rotate(-180 0 -1.294)" class="boardSt2" d="M-.7-1.4H.7v.2H-.7z"/>
        <path transform="rotate(-180 0 1.294)" class="boardSt2" d="M-.7 1.2H.7v.2H-.7z"/>
        <path transform="rotate(-180 0 1.048)" class="boardSt1" d="M-.7.9H.7v.2H-.7z"/>
        <circle class="boardSt3" r=".1"/>
    </symbol>
    <path id="Logo" d="M38.5 56.4v-6.1c0-.6-.5-1.1-1.1-1.1h-4.1c-.6 0-1.1.5-1.1 1.1V53c-.2-2.4-2.3-4.3-4.7-4.3-2.6 0-4.7 2.1-4.7 4.7v5.2l-4.3 3.2-1.3 1c-3.8 2.9-1.8 8.9 3 8.9h1.3c.5-3.4 1.4-7.5 3.5-10.1.1-.1.1-.2.2-.2h.1V71.7h6.2c-2.5-1.8-4.5-6.3-6.1-10.1 0-.1-.1-.2-.1-.2h5c.1.1.1.2.2.3 2.1 2.7 3 6.7 3.4 10.1h1.6c1.8 0 3.2-1.4 3.2-3.2l-.2-12.2zm-5.6-5.8h4.7v5.8h-4.7v-5.8zm-2.6 8.7h-2.8l.2-.7.7-2.2.2-.6.3.6 1.4 2.9zm-4.2-2.9.3-.6.2.6.9 2.9h-2.8l1.4-2.9zm-.6-4.7h3.9v2.6c0 .7-.4 1.2-1 1.5h-1.8c-.6-.2-1-.8-1-1.5v-2.6z" style="fill:#ffd600"/>
    <path d="M33.7 42.1c.2-.1 1 .4 1.4.7.3-.4.6-.7 1-1.1 1.1-1.3 3.8-3.4 8.6-3.4 8.6 0 10.6 4.6 10.7 4.8.1.3 0 .7-.3.8h-.2c-.2 0-.5-.1-.6-.4-.1-.2-1.9-4.1-9.6-4.1-5.1 0-7.4 2.5-8 3.4l-.2.2c0 .1-.1.1-.1.1 0 .1-.1.1-.2.2l.2.1c.4.2 1.3.4 1.4.7.1.3 0 .6-.4.8l-2.8 1h-.1c-.1 0-.3 0-.4-.1-.2-.1-.3-.2-.3-.4l-.7-2.9c.1 0 .3-.4.6-.4z" style="fill:#e022a6"/>
    <path id="Platine" d="M234.1 122.2c-.2.1-.4.1-.6.2-.3.1-.5.2-.8.2-.1 0-.2 0-.3.1-.3.1-.5.1-.8.2-.3 0-.6.1-.8.1h-1.2c-7.2 0-13-5.8-13-13 0-2.2.5-4.2 1.5-6 .6-1.2 1.4-2.3 2.3-3.2.1-.1.2-.1.2-.2l.4-.4c.1-.1.2-.2.4-.3.2-.2.5-.4.7-.5.2-.2.5-.3.7-.5.2-.1.4-.3.7-.4.2-.1.5-.2.7-.4s.5-.2.7-.3c.4-.2.8-.3 1.2-.4.2 0 .3-.1.5-.1.3-.1.6-.1 1-.2s.7-.1 1.1-.1h.9c.6 0 1.2 0 1.8.1.1 0 .3 0 .4.1.7.1 1.4.3 2 .5-31.5-12.7-50.3-45.3-45.4-79-.1.3-.1.6-.2.9-.2.7-.4 1.3-.7 1.9-.1.2-.2.5-.3.7l-.3.6c-.1.2-.3.5-.4.7-.1.2-.3.4-.4.6-.1.2-.3.4-.5.6-.1.2-.3.4-.5.5l-.5.5-.5.5c-.2.2-.4.3-.6.4-.2.1-.4.3-.6.4-.2.1-.4.3-.6.4-.3.2-.5.3-.8.4-.3.1-.5.3-.8.4-.1.1-.2.1-.3.1-1.1.4-2.3.7-3.5.8-.4 0-.8.1-1.2.1-2.6 0-5.1-.8-7.1-2.1-1.4-.9-2.7-2.2-3.6-3.5-1.4-2.1-2.3-4.6-2.3-7.4v-1.1c0-.2.1-.5.1-.7 0-.1 0-.3.1-.4 0-.1 0-.3.1-.4.1-.2.1-.5.2-.8.1-.3.2-.6.3-1 0-.1.1-.2.1-.3 0-.1.1-.2.1-.4.1-.3.2-.5.4-.8.1-.2.3-.5.4-.7.4-.7.9-1.4 1.5-2l.6-.6.3-.3.3-.3c.2-.2.4-.4.6-.5.2-.2.4-.3.7-.5.2-.1.4-.3.6-.4-.2.1-.4.2-.5.3l-.9.6c-9.7 7.7-20.9 13.2-32.8 16.1v19c0 .3-.2.6-.4.7-.4.2-.9.1-1.2-.3-.2-.3-.4-.4-.7-.4h-21.5c-.3 0-.6.2-.7.4-.2.3-.4.4-.7.4-.5 0-.9-.4-.9-.8V22c-11.4-2.8-22.1-7.9-31.4-15 .2.2.4.4.6.7.2.2.4.5.6.8.1.1.2.3.3.4.1.2.2.4.3.5l.3.6c.6 1.1 1 2.3 1.2 3.5 0 .1.1.3.1.4 0 .2.1.5.1.7V16c0 7.2-5.8 13.1-13.1 13.1h-.7c-.5 0-1-.1-1.6-.2-.3-.1-.6-.1-.9-.2-.4-.1-.8-.2-1.2-.4-.3-.1-.7-.2-1-.4-.3-.1-.6-.3-.9-.4 0 0-.1-.1-.2-.1-.3-.1-.6-.3-.8-.5l-.9-.6c-.2-.2-.4-.3-.6-.5-.2-.2-.4-.4-.6-.5-.6-.6-1.1-1.2-1.6-1.9-.1-.1-.2-.2-.2-.4-.1-.2-.2-.3-.3-.5-.1-.2-.2-.3-.3-.5-.1-.2-.2-.4-.3-.5-.2-.4-.4-.8-.5-1.3 0-.1-.1-.3-.1-.4-.1-.2-.1-.4-.2-.6-.1-.3-.1-.6-.2-.8 0-.1 0-.2-.1-.4v-.1.2c4.9 33.8-13.6 66.5-45 79.4.8-.2 1.6-.4 2.4-.5.2 0 .4 0 .6-.1h.7c3.6 0 6.8 1.4 9.2 3.8 2.4 2.4 3.9 5.7 3.9 9.3 0 7.2-5.8 13.1-13.1 13.1-.4 0-.9 0-1.3-.1-.2 0-.4 0-.6-.1-.2 0-.4-.1-.7-.1l-1.2-.3c-.4-.1-.8-.3-1.2-.4.1 0 .2.1.3.1 31.4 12.3 50.3 44.3 46.2 77.6.1-.2.1-.4.2-.6 0-.1.1-.2.1-.3 0-.1.1-.2.1-.3l.3-.6v-.1c.1-.2.2-.3.2-.4v-.1c.1-.3.3-.5.5-.8.1-.1.1-.2.2-.2l.1-.1c.1-.1.2-.3.3-.4.2-.3.5-.6.8-.9l.1-.1.1-.1c.1-.1.2-.3.4-.4.2-.2.3-.3.5-.4.2-.2.3-.3.5-.4.2-.1.3-.3.5-.4l.1-.1c.1-.1.3-.2.4-.3.7-.5 1.4-.8 2.1-1.2.4-.2.9-.4 1.4-.5.6-.2 1.3-.3 1.9-.4.2 0 .5-.1.7-.1.4 0 .9-.1 1.4-.1.4 0 .9 0 1.3.1.2 0 .4 0 .5.1.2 0 .4 0 .5.1.2 0 .3.1.5.1.8.2 1.7.5 2.4.8.3.1.6.3.9.4.3.2.6.3.9.5.3.2.6.4.8.6.3.2.6.5.9.7l.6.6c.2.2.4.4.5.6.1.1.2.2.2.3.2.2.4.4.5.7.2.2.3.5.5.7.2.3.4.6.6 1 .1.2.3.5.4.8 0 .1.1.2.1.2.1.3.2.5.3.8v.1l.3.9-1.8-10.4c-.2-1.3.4-2.6 1.7-3.1l2-.4c1.5-.3 3 .8 3.3 2.3l2 11.4c.2 1.2 1.4 2.1 2.6 1.8l13.4-2.4.6-.1c1.2-.2 2.1-1.4 1.8-2.6l-1.9-10.9-.1-.6c-.3-1.5.8-3 2.3-3.3l1.8-.3c1.4 0 2.5 1 2.8 2.3l2 11.3c.2 1.4 1.6 2.5 3 2.3 3.8-.3 7.6-.3 11.4 0 1.5.1 2.8-.9 3-2.3l2-11.3c.2-1.3 1.3-2.3 2.6-2.4l2 .3c1.5.3 2.6 1.7 2.3 3.3l-2 11.4c-.2 1.2.6 2.4 1.8 2.6l13.4 2.4.6.1c1.2.2 2.4-.6 2.6-1.8l1.9-10.9.1-.6c.3-1.5 1.7-2.6 3.3-2.3l1.8.3c1.3.5 2 1.8 1.8 3.1l-1.8 9.9c.1-.2.1-.3.2-.5.2-.5.3-.9.5-1.4.2-.5.5-1 .8-1.5l.6-.9c1.3-1.7 3-3.1 4.9-4l.6-.3c.2-.1.4-.2.6-.2.2-.1.4-.2.6-.2.6-.2 1.1-.3 1.7-.4.2 0 .4-.1.5-.1.3 0 .7-.1 1-.1H176.8c.2 0 .4 0 .6.1.3 0 .5.1.8.1.2 0 .4.1.5.1.4.1.9.2 1.3.4.2.1.3.1.5.2.3.1.7.3 1 .5.2.1.3.2.5.2.2.1.4.2.6.4.1.1.2.1.3.2.2.1.3.2.5.4.2.1.4.3.6.5.1.1.3.2.4.4.8.7 1.4 1.5 2 2.3.1.1.1.2.2.3.4.6.7 1.2 1 1.8.1.1.1.2.2.3.2.5.4 1 .5 1.6.1.2.1.3.1.5-4.7-33.2 14.2-65.7 45.7-78.2zm-90.2 63.2c0-.2.1-.5.2-.6.2-.2.4-.3.7-.3.5 0 1 .4 1 1s-.4 1-1 1c-.4-.1-.9-.5-.9-1.1zm-53 2.3c-.5 0-1-.4-1-1s.5-1 1-1 1 .4 1 1c0 .5-.5 1-1 1zm3.5-.7c-.5 0-1-.4-1-1s.5-1 1-1 1 .4 1 1-.4 1-1 1zm3.6-.6c-.5 0-1-.5-1-1 0-.6.4-1 1-1s1 .4 1 1c-.1.6-.5 1-1 1zm50.5-1.3c.5 0 1 .4 1 1s-.4 1-1 1-1-.4-1-1 .4-1 1-1zm3.5.6c.6 0 1 .4 1 1 0 .5-.4 1-1 1-.5 0-1-.4-1-1s.5-1 1-1zm-63.2 10h-.2c-.5 0-.9-.3-1-.8l-.4-2.2c-.1-.5.3-1.1.8-1.2.5-.1 1.1.3 1.1.8l.4 2.2c.2.6-.1 1.1-.7 1.2zm14.1-2.5c-.5.1-1.1-.3-1.2-.8l-.4-2.2c-.1-.5.3-1.1.8-1.1.5-.1 1 .3 1.2.8l.4 2.2c.1.5-.2 1-.8 1.1zm38.2-.8c-.1.5-.6.9-1.2.8-.5-.1-.9-.6-.8-1.2l.4-2.2c.1-.5.6-.9 1.2-.8.5.1.9.6.8 1.1l-.4 2.3zm14.1 2.5c-.1.5-.6.9-1.2.8-.5-.1-.8-.5-.8-1v-.2l.4-2.2c.1-.5.6-.9 1.1-.8.5.1.9.6.8 1.2l-.3 2.2z" style="fill:#1e1e21"/>
    <g id="Silk-Screen" style="opacity:.9">
        <path class="boardSt8" d="M57.7 144.4V143.3l.1-.1.1-.1.1-.1.1-.1.1-.1.1-.1.1-.1.1-.1.1-.1.1-.1.1-.1.1-.1H61l.1.1.1.1.1.1.1.1.1.1.1.1.1.1.1.1.1.1V145.2l-.1.1-.1.1-.1.1-.1.1-.1.1-.1.1-.1.1-.1.1-.1.1-.1.1-.1.1-.1.1H58.6l-.1-.1-.1-.1-.1-.1-.1-.1-.1-.1-.1-.1-.1-.1-.1-.1-.1-.1V144.6h.7v.6H60.8l.1-.1.1-.1.1-.1.1-.1V142.4H58.9l-.1.1-.1.1-.1.1-.1.1V144.5h-.7l-.1-.1zM55.9 137.5l.6.6.3.3-.3.3-.4-.3-2 2 .8.8.4-.3.4.4-.8.8-2.1-2.2.3-.3.4.2 2.1-2-.2-.4.3-.3.2.4zM61.6 151h.1-.1zM50.2 142.9l-4 4 1.4 1.5-.9.9-4-4.1.9-.9 1.5 1.5 3.1-3.1-1.5-1.5.9-.9 2.6 2.6zM50.9 140.2h.1-.1zM66 147.7l1.9 2-.8.8-.4-.4.3-.4-.9-.9-.7.7 1 1-.4.4-1-1-.8.8.9.9.4-.3.4.4-.8.8-2.3-2.3.3-.3.4.2 2.1-2-.2-.4.3-.3.3.3zM47.2 129.3H48.1l.1.1.1.1.1.1.1.1.1.1-.6.6-.4-.4.3-.4H45.3l-.1.1-.1.1-.1.1-.1.1V132.5l.4-.3.4.4-.6.6-.1-.1-.1-.1-.1-.1-.1-.1-.1-.1V130.6l.1-.1.1-.1.1-.1.1-.1.1-.1.1-.1.1-.1.1-.1.1-.1.1-.1.1-.1.1-.1.1-.1H47.2zM59.3 141l-.3.3-.4-.3-2.1 2 .2.4-.3.3-1.2-1.2.3-.3.4.3 2.1-2-.2-.4.3-.3 1.2 1.2zM42.5 135.1l-.5.6H43.7l-3.6 3.5-1-1 3.6-3.6-3.8 3.7-1-1 3.6-3.6-3.8 3.8-1-1 4.9-4.9.9 3.5zM31.4 124.6l-.5.1-.5.1-.5.1-.5.1-.5.2-.5.2-.5.2-.5.2-.4.2-.5.3-.5.3-.5.3-.4.3-.4.3-.8.6-.6-.6-.2-.2-.2-.2-.2-.3-.1-.3-.1-.3-.1-.3-.1-.3v-1.5l.1-.3.1-.3.1-.3v-.1h9.7l1.5 1.5 1.2-2.3-2.7.8h-9.7l.1-.2.1-.2.1-.2.2-.2.2-.2.2-.2.1-.1h11.5V122.8l.4.4H37.5l1.4-1.4-2-2.1-1.4 1.4V122.1H23.6l.1-.1.2-.2.2-.1.3-.1.3-.1.3-.1.3-.1h1.2l5.2.8 2.1-2.1.7-.6.1-.1.1-.1.1-.1.1-.1.1-.1.2-.1.2-.1.2-.1.2-.1.2-.1h2.4l.2.1.2.1.2.1.2.1.2.1.1.1.1.1.1.1.1.1.1.1.1.1.1.1.1.1.1.1.1.1.1.2.1.2.1.2.1.2.1.2v2.4l-.1.2-.1.2-.1.2-.1.2-.1.2-.1.1-.1.1-.1.1-.1.1-.1.1 1.7-1.6 2.2 2.2-3.2 3.2-6.4 6.3-.1.1-.1.1-.1.1-.1.1-.1.1-.1.1.4.5H32.2l-.1-.1-.1-.1-.1-.1-.1-.1-.1-.1-.1-.1-.1-.1-.8-.8.6-.8.6-.9.3-.4.3-.5.3-.5.3-.5.2-.5.2-.5.2-.5.2-.5.2-.5.1-.5.1-.5.1-.5-2.4-2.4h2.1l1.5 1.5.1-.2h2.8l2.5 2.5 3-3-2.5-2.5-3 3h-2.8l.8-2.6-2.3 1.2h-2.1l-.7.2z"/>
        <path class="boardSt8" d="m31 125.8-.4 1.2-.4 1.2-.2.6-.2.6-.2.6-.1.6-.1.5-.1.5-.1.5v1.4l-3.3-3.3 5.5-5.4-.4 1zM47.3 134l.2.2 3.4-1.6.6.6-1.6 3.3.2.2-.3.3-1-1 .3-.3.2.2.3-.5-.9-.9-.5.3.2.2-.3.3-1-1 .1-.1h2.1l.7.7.7-1.3-1.3.7h-2.1v-.3zM53.9 146.6l-.6.7H56.1l.1.1.1.1.1.1.1.1V152.4l-.1.1-.1.1-.1.1-.1.1-.1.1-.1.1-3.1 3-1.1-1.1 3-3 .1-.1v-.5H52.7l-3.5 3.5-1.1-1.1 4.9-4.9.9-2.2zM60.9 153.7l-4 4 1.4 1.5-.9.9-4-4.1.9-.9 1.5 1.5 3.1-3.1-1.5-1.5.9-.9 2.6 2.6zM53.3 134.9l.6.6.3.3-.3.3-.4-.3-2 2 .8.8.4-.3.4.4-.8.8-2.1-2.2.3-.3.4.2 2.1-2-.2-.4.3-.3.2.4zM63.2 144.9l1.1 1.1.1.1.1.1.1.1V149.2H61.7l-.1-.1-.1-.1-.1-.1-.5-.5-.6.6.2.4-.3.3-1.2-1.2.3-.3.4.2.5-.5h1.1l.5.5-.5-.5-.9.9h-1.1l1.6-1.5-.2-.4.3-.3 2.2-1.7z"/>
        <path id="Motoren-Pinleiste" class="boardSt8" d="M154.5 175.1h14.9v-6.7h-14.9"/>
        <path id="Motoren-Pinleiste_00000107589385642390016050000006671797075869069747_" class="boardSt8" d="M154.5 157.2h14.9v-8.3h-14.9v8.3z"/>
        <path class="boardSt8" d="M211.1 129h2.6l-3.2 4.5.6-3.2h-3.2l4-4.5-.8 3.2z" id="Power"/>
        <g id="Taste_B_00000082349505263425710090000011385801950500053397_">
            <defs>
                <filter id="ledglow" x="-75%" y="-75%" width="300%" height="300%">
                    <feMorphology operator="dilate" radius="1" in="SourceAlpha" result="thicken"/>
                    <feGaussianBlur stdDeviation="5" in="thicken" result="blurred"/>
                    <feFlood flood-color="#FF114D" result="glowColor"/>
                    <feComposite in="glowColor" in2="blurred" operator="in" result="ledglow_colored"/>
                    <feMerge>
                        <feMergeNode in="ledglow_colored"/>
                        <feMergeNode in="SourceGraphic"/>
                    </feMerge>
                </filter>
                <filter id="Adobe_OpacityMaskFilter" filterUnits="userSpaceOnUse" x="166.8" y="82.1" width="21.8" height="21.8">
                    <feFlood style="flood-color:white;flood-opacity:1" result="back"/>
                    <feBlend in="SourceGraphic" in2="back"/>
                </filter>
            </defs>
            <mask maskUnits="userSpaceOnUse" x="166.8" y="82.1" width="21.8" height="21.8" id="SVGID_1_">
                <g style="filter:url(#Adobe_OpacityMaskFilter)">
                    <path class="boardSt10" d="m186.2 100.2-2.6-2.6 3.1-3.1 2.6 2.6-3.1 3.1zM179 105.2v.3l-.1.3-.2.2-.3.1H173.2l-.3-.1-.2-.2-.1-.3V100.3l.1-.3.2-.2.3-.1H178.4l.3.1.2.2.1.3V105.2z"/>
                    <path id="Lautsprecher_00000003806582182474844270000009995606103785087383_" class="boardSt11" d="M158.1 125h15.1c.2 0 .3-.1.4-.2l3.9-3.9c.1-.1.2-.3.2-.4v-15.1c0-.2-.1-.3-.2-.4l-3.9-3.9c-.1-.1-.3-.2-.4-.2h-15.1c-.2 0-.3.1-.4.2l-3.9 3.9c-.1.1-.2.3-.2.4v15.1c0 .2.1.3.2.4l3.9 3.9c.1.1.3.2.4.2z"/>
                    <path class="boardSt11" d="m184.6 97.7 1.4 1.4 1-1h.1V98l.6-.5.2-.2.2-.3.9-.9-1.4-1.4-1.1 1.2-.2.2h-.1l-.1.2-.2.2-.2.1zM187.3 94.4l.3.3 1.4 1.4 7.6 7.6 1.4 1.4.3.3c.3.3.7.3 1 0l11-11c.3-.3.3-.7 0-1l-.3-.3-1.4-1.4-7.6-7.6-1.4-1.4-.3-.3c-.3-.3-.7-.3-1 0l-11 11c-.3.3-.3.7 0 1zm12.6-8.2c-.6.6-1.4.6-2 0-.6-.5-.6-1.4 0-2 .6-.5 1.4-.5 2 0 .5.6.5 1.5 0 2zm6.6 6.7c.5-.6 1.4-.6 2 0 .5.6.5 1.4 0 2-.6.6-1.5.6-2 0-.5-.5-.5-1.4 0-2zm-8.6 8.7c.6-.6 1.4-.6 2 0 .6.6.6 1.4 0 2s-1.4.6-2 0c-.6-.5-.6-1.4 0-2zm-2.6-11.2c1.9-1.9 5.1-1.9 7 0 1.9 1.9 1.9 5.1 0 7-1.9 1.9-5.1 1.9-7 0-1.9-1.9-1.9-5 0-7zm-6.1 2.5c.6-.6 1.4-.6 2 0 .6.6.6 1.4 0 2-.6.6-1.4.6-2 0-.6-.5-.6-1.4 0-2z"/>
                </g>
            </mask>
            <path d="M166.8 92.5v-.6l.1-.5.1-.5.1-.5.1-.5.2-.5.2-.5.2-.5.2-.5.3-.5.3-.4.3-.4.3-.4.3-.4.4-.4.4-.4.4-.3.4-.3.4-.3.4-.3.5-.3.5-.2.5-.2.5-.2.5-.2.5-.1.5-.1.5-.1.5-.1h2.4l.5.1.5.1.5.1.5.1.5.2.7.1.5.2.5.2.5.3.4.3.4.3.4.3.4.3.4.4.4.4.3.4.3.4.3.4.3.4.3.5.2.5.2.5.2.5.2.5.1.5.1.5.1.5.1.5v2.4l-.1.5-.1.5-.1.5-.1.5-.2.5-.2.5-.2.5-.2.5-.3.5-.3.4-.3.4-.3.4-.3.4-.4.4-.4.4-.4.3-.4.3-.4.3-.4.3-.5.3-.5.2-.5.2-.5.2-.5.2-.5.1-.5.1-.5.1-.5.1h-2.4l-.5-.1-.5-.1-.5-.1-.5-.1-.5-.2-.5-.2-.5-.2-.5-.2-.5-.3-.4-.3-.4-.3-.4-.3-.4-.3-.4-.4-.4-.4-.3-.4-.3-.4-.3-.4-.3-.4-.3-.5-.2-.5-.2-.5-.2-.5-.2-.5-.1-.5-.1-.5-.1-.5-.1-.5V93h1.9v1l.1.4.1.4.1.4.1.4.1.4.2.4.2.4.2.4.2.4.2.4.3.4.3.3.3.3.3.3.3.3.3.3.3.3.4.3.4.2.4.2.4.2.4.2.4.2.4.1.4.1.4.1.4.1.4.1h2l.4-.1.4-.1.4-.1.4-.1.4-.1.4-.2.4-.2.4-.2.4-.2.4-.2.4-.3.3-.3.3-.3.3-.3.3-.3.3-.3.3-.3.3-.4.2-.4.2-.4.2-.4.2-.4.2-.4.1-.4.1-.4.1-.4.1-.4.1-.4v-2l-.1-.4-.1-.4-.1-.4-.1-.4-.1-.4-.2-.4-.2-.4-.2-.4-.2-.4-.2-.4-.3-.4-.3-.3-.3-.3-.3-.3-.3-.3-.3-.3-.3-.3-.4-.3-.4-.2-.4-.2-.4-.2-.4-.2-.4-.2-.4-.1-.4-.1-.4-.1-.4-.1-.4-.1h-2l-.4.1-.4.1-.4.1-.4.1-.4.1-.4.2-.4.2-.4.2-.4.2-.4.2-.4.3-.3.3-.3.3-.3.3-.3.3-.3.3-.3.3-.3.4-.2.4-.2.4-.2.4-.2.4-.2.4-.1.4-.1.4-.1.4-.1.4-.1.4v1H167l-.2-.5z" style="mask:url(#SVGID_1_);fill-rule:evenodd;clip-rule:evenodd;fill:#fff"/>
            <path class="boardSt8" d="M177.6 89.7H179l.1.1.1.1.1.1.1.1.1.1.1.1V92.7h.4V95.4l-.1.1-.1.1-.1.1-.1.1-.1.1-.1.1-.1.1h-3.5V95h2.2v-.7h-.9v1.8h-1.3v-2.8h2v-.4H177v1.7h-1.3v-2.8h1.9z"/>
        </g>
        <g id="Taste_A_00000173864098007574672720000003462884650823797891_">
            <path class="boardSt8" d="m63.8 93.3 2.1 6.7h-1.4l-.4-1.4h-1.8l-.4 1.4h-1.4l.8-2.5h2.5l-.6-2.4-.6 2.4h-1.3l1.3-4.2h1.2z"/>
            <path class="boardSt8" d="M63.2 82.1 48.5 96.7l14.6 14.6 14.6-14.6-14.5-14.6zm-12 14.6 12-12 12 12-12 12-12-12z"/>
        </g>
        <path id="Reset" class="boardSt8" d="M155.7 29H156.7l.1.1.1.1.1.1.1.1.1.1.1.1.1.1.1.1.1.1.1.1V34.5l-.1.1-.1.1-.1.1-.1.1-.1.1-.1.1-.1.1-.1.1-.1.1-.1.1-.1.1H154.5l-.1-.1-.1-.1-.1-.1-.1-.1-.1-.1-.1-.1-.1-.1-.1-.1-.1-.1-.1-.1v-2.9l-.9.8-.6-.5 1.9-2 1.8 2-.6.5-.8-.8V34.6H156.1V30H155.2l-.6-.7.1-.1h1.3l-.3-.2z"/>
        <path class="boardSt13" d="M155.7 16.4v-.6l.1-.1.1-.1.1-.1.1-.1.1-.1.1-.1.1-.1.1-.1.1-.1.1-.1.1-.1.1-.1.1-.1.1-.1.1-.1.1-.1H158.9l.1.1.1.1.1.1.1.1.1.1.1.1.1.1.1.1.1.1.1.1.1.1.1.1.1.1.1.1.1.1.1.1V17.4l-.1.1-.1.1-.1.1-.1.1-.1.1-.1.1-.1.1-.1.1-.1.1-.1.1-.1.1-.1.1-.1.1-.1.1-.1.1-.1.1H157.3l-.1-.1-.2.1-.1-.1-.1-.1-.1-.1-.1-.1-.1-.1-.1-.1-.1-.1-.1-.1-.1-.1-.1-.1-.1-.1-.1-.1-.1-.1V16.9h.6V18l.1.1.1.1.1.1.1.1.1.1.1.1.1.1.1.1.1.1.1.1H159.5l.1-.1.1-.1.1-.1.1-.1.1-.1.1-.1.1-.1.1-.1.1-.1.1-.1V15.8l-.1-.1-.1-.1-.1-.1-.1-.1-.1-.1-.1-.1-.1-.1-.1-.1-.1-.1-.1-.1H157.3l-.1.1-.1.1-.1.1-.1.1-.1.1-.1.1-.1.1-.1.1-.1.1-.1.1V16.9h-.6v-.5z"/>
        <path class="boardSt8" d="M158.7 16.2h1.2v.8h-1.2v1.3h-.8V17h-1.2v-.8h1.2V15h.8v1.2z"/>
        <path class="boardSt13" d="M81.5 16.2v-.6l.1-.1.1-.1.1-.1.2-.3.1-.1.1-.1.1-.1.1-.1.1-.1.1-.1.1-.1.1-.1.1-.1.1-.1.1-.1.1-.1H84.8l.1.1.1.1.1.1.1.1.1.1.1.1.1.1.1.1.1.1.1.1.1.1.1.1.1.1.1.1.1.1.1.1V17l-.1.1-.1.1-.1.1.3.7-.1.1-.1.1-.1.1-.1.1v.1l-.1.1-.1.1-.1.1-.1.1-.1.1-.1.1-.2-.1H83.6l-.6-.1-.1-.1-.1-.1-.1-.1-.1-.1-.1-.1-.1-.1-.1-.1-.1-.1-.1-.1-.1-.1v.1l-.1-.1-.1-.1-.1-.1-.1-.1V16.8h.6V17.9l.1.1.1.1.1.1.1.1.1.1.1.1.1.1.1.1.1.1.1.1H85.4l.1-.1.1-.1.1-.1.1-.1.1-.1.1-.1.1-.1.1-.1.1-.1.1-.1V15.7l-.1-.1-.1-.1-.1-.1-.1-.1-.1-.1-.3-.2-.1-.1-.1-.1-.1-.1-.1-.1H83l-.1.1.1.2-.1.1h-.1l-.1.1-.1.1-.1.1-.1.1-.1.1-.1.1V16.7h-.6v-.1l-.1-.4z"/>
        <path class="boardSt8" d="M85.8 16.9h-3.2V16h3.2v.9z"/>
        <path class="boardSt14" d="M143.7 68.1h.2l.2.1.1.2V70.2l-.1.2-.2.1H142l-.2-.1-.1-.2V68.6l.1-.2.2-.1h1.7zM143.7 63.6h.2l.2.1.1.2V65.5l-.1.2-.2.1H142l-.2-.1-.1-.2V63.9l.1-.2.2-.1h1.7zM109.7 68.1h.2l.2.1.1.2V70.2l-.1.2-.2.1H108l-.2-.1-.1-.2V68.6l.1-.2.2-.1h1.7zM109.7 63.6h.2l.2.1.1.2V65.5l-.1.2-.2.1H108l-.2-.1-.1-.2V63.9l.1-.2.2-.1h1.7zM98.3 68.1h.2l.2.1.1.2V70.2l-.1.2-.2.1h-1.9l-.2-.1-.1-.2V68.6l.1-.2.2-.1h1.7zM98.3 63.6h.2l.2.1.1.2V65.5l-.1.2-.2.1h-1.9l-.2-.1-.1-.2V63.9l.1-.2.2-.1h1.7zM109.7 79.5h.2l.2.1.1.2V81.4l-.1.2-.2.1H108l-.2-.1-.1-.2V79.8l.1-.2.2-.1h1.7zM109.7 75h.2l.2.1.1.2V76.9l-.1.2-.2.1H108l-.2-.1-.1-.2V75.3l.1-.2.2-.1h1.7zM98.3 102.2h.2l.2.1.1.2V104.1l-.1.2-.2.1h-1.9l-.2-.1-.1-.2V102.5l.1-.2.2-.1h1.7zM98.3 97.7h.2l.2.1.1.2V99.6l-.1.2-.2.1h-1.9l-.2-.1-.1-.2V98l.1-.2.2-.1h1.7zM121.9 133.8v-2h2v2h-2zM121.9 130.7v-2h2v2h-2zM116.7 130.7v-2h2v2h-2zM116.7 133.8v-2h2v2h-2zM109.7 90.8h.2l.2.1.1.2V92.7l-.1.2-.2.1H108l-.2-.1-.1-.2V91.1l.1-.2.2-.1h1.7zM109.7 86.3h.2l.2.1.1.2V88.2l-.1.2-.2.1H108l-.2-.1-.1-.2v-1.4l.1-.2.2-.1h1.7zM121 90.8h.2l.2.1.1.2V92.7l-.1.2-.2.1h-1.9l-.2-.1-.1-.2V91.1l.1-.2.2-.1h1.7zM121 86.3h.2l.2.1.1.2V88.2l-.1.2-.2.1h-1.9l-.2-.1-.1-.2v-1.4l.1-.2.2-.1h1.7zM143.7 102.2h.2l.2.1.1.2V104.1l-.1.2-.2.1H142l-.2-.1-.1-.2V102.5l.1-.2.2-.1h1.7zM143.7 97.7h.2l.2.1.1.2V99.6l-.1.2-.2.1H142l-.2-.1-.1-.2V98l.1-.2.2-.1h1.7zM98.3 90.8h.2l.2.1.1.2V92.7l-.1.2-.2.1h-1.9l-.2-.1-.1-.2V91.1l.1-.2.2-.1h1.7zM98.3 86.3h.2l.2.1.1.2V88.2l-.1.2-.2.1h-1.9l-.2-.1-.1-.2v-1.4l.1-.2.2-.1h1.7zM143.7 113.5h.2l.2.1.1.2V115.4l-.1.2-.1.4h-1.9l-.2-.1-.1-.2V114.1l.1-.2.2-.1H143.7zM143.7 109.1h.2l.2.1.1.2V111l-.1.2-.2.1H142l-.2-.1-.1-.2V109.4l.1-.2.2-.1h1.7zM132.4 79.5h.2l.2.1.1.2V81.4l-.1.2-.2.1h-1.9l-.2-.1-.1-.2V79.8l.1-.2.2-.1h1.7zM132.4 75h.2l.2.1.1.2V76.9l-.1.2-.2.1h-1.9l-.2-.1-.1-.2V75.3l.1-.2.2-.1h1.7zM121 102.2h.2l.2.1.1.2V104.1l-.1.2-.2.1h-1.9l-.2-.1-.1-.2V102.5l.1-.2.2-.1h1.7zM121 97.7h.2l.2.1.1.2V99.6l-.1.2-.2.1h-1.9l-.2-.1-.1-.2V98l.1-.2.2-.1h1.7zM121 79.5h.2l.2.1.1.2V81.4l-.1.2-.2.1h-1.9l-.2-.1-.1-.2V79.8l.1-.2.2-.1h1.7zM121 75h.2l.2.1.1.2V76.9l-.1.2-.2.1h-1.9l-.2-.1-.1-.2V75.3l.1-.2.2-.1h1.7zM143.7 90.8h.2l.2.1.1.2V92.7l-.1.2-.2.1H142l-.2-.1-.1-.2V91.1l.1-.2.2-.1h1.7zM143.7 86.3h.2l.2.1.1.2V88.2l-.1.2-.2.1H142l-.2-.1-.1-.2v-1.4l.1-.2.2-.1h1.7zM121 113.5h.2l.2.1.1.2V115.4l-.1.2-.2.1h-1.9l-.2-.1-.1-.2V113.8l.1-.2.2-.1h1.7zM121 109.1h.2l.2.1.1.2V111l-.1.2-.2.1h-1.9l-.2-.1-.1-.2V109.4l.1-.2.2-.1h1.7zM136.1 133.8v-2h2v2h-2zM136.1 130.7v-2h2v2h-2zM130.9 130.7v-2h2v2h-2zM130.9 133.8v-2h2v2h-2zM109.7 113.5h.2l.2.1.1.2V115.4l-.1.2-.2.1H108l-.2-.1-.1-.2V113.8l.1-.2.2-.1h1.7zM109.7 109.1h.2l.2.1.1.2V111l-.1.2-.2.1H108l-.2-.1-.1-.2V109.4l.1-.2.2-.1h1.7zM107.7 133.8v-2h2v2h-2zM107.7 130.7v-2h2v2h-2zM102.5 130.7v-2h2v2h-2zM102.5 133.8v-2h2v2h-2zM109.7 102.2h.2l.2.1.1.2V104.1l-.1.2-.2.1H108l-.2-.1-.1-.2V102.5l.1-.2.2-.1h1.7zM109.7 97.7h.2l.2.1.1.2V99.6l-.1.2-.2.1H108l-.2-.1-.1-.2V98l.1-.2.2-.1h1.7zM132.4 68.1h.2l.2.1.1.2V70.2l-.1.2-.2.1h-1.9l-.2-.1-.1-.2V68.6l.1-.2.2-.1h1.7zM132.4 63.6h.2l.2.1.1.2V65.5l-.1.2-.2.1h-1.9l-.2-.1-.1-.2V63.9l.1-.2.2-.1h1.7zM132.4 102.2h.2l.2.1.1.2V104.1l-.1.2-.2.1h-1.9l-.2-.1-.1-.2V102.5l.1-.2.2-.1h1.7zM132.4 97.7h.2l.2.1.1.2V99.6l-.1.2-.2.1h-1.9l-.2-.1-.1-.2V98l.1-.2.2-.1h1.7zM132.4 113.5h.2l.2.1.1.2V115.4l-.1.2-.2.1h-1.9l-.2-.1-.1-.2V113.8l.1-.2.2-.1h1.7zM132.4 109.1h.2l.2.1.1.2V111l-.1.2-.2.1h-1.9l-.2-.1-.1-.2V109.4l.1-.2.2-.1h1.7zM98.3 113.5h.2l.2.1.1.2V115.4l-.1.2-.2.1h-1.9l-.2-.1-.1-.2V113.8l.1-.2.2-.1h1.7zM98.3 109.1h.2l.2.1.1.2V111l-.1.2-.2.1h-1.9l-.2-.1-.1-.2V109.4l.1-.2.2-.1h1.7zM121 68.1h.2l.2.1.1.2V70.2l-.1.2-.2.1h-1.9l-.2-.1-.1-.2V68.6l.1-.2.2-.1h1.7zM121 63.6h.2l.2.1.1.2V65.5l-.1.2-.2.1h-1.9l-.2-.1-.1-.2V63.9l.1-.2.2-.1h1.7zM98.3 79.5h.2l.2.1.1.2V81.4l-.1.2-.2.1h-1.9l-.2-.1-.1-.2V79.8l.1-.2.2-.1h1.7zM98.3 75h.2l.2.1.1.2V76.9l-.1.2-.2.1h-1.9l-.2-.1-.1-.2V75.3l.1-.2.2-.1h1.7zM143.7 79.5h.2l.2.1.1.2V81.4l-.1.2-.2.1H142l-.2-.1-.1-.2V79.8l.1-.2.2-.1h1.7zM143.7 75h.2l.2.1.1.2V76.9l-.1.2-.2.1H142l-.2-.1-.1-.2V75.3l.1-.2.2-.1h1.7zM132.4 90.8h.2l.2.1.1.2V92.7l-.1.2-.2.1h-1.9l-.2-.1-.1-.2V91.1l.1-.2.2-.1h1.7zM132.4 86.3h.2l.2.1.1.2V88.2l-.1.2-.2.1h-1.9l-.2-.1-.1-.2v-1.4l.1-.2.2-.1h1.7z"/>
    </g>
    <g id="Touchpins">
        <path id="Plus-Pin" class="boardSt15" d="M175.5 3.3c-2.5 0-4.8.7-6.8 1.9-.2.1-.4.2-.5.3h-.1c-.2.2-.5.3-.7.5-.2.2-.4.3-.6.5l-.3.3-.3.3-.6.6c-.6.6-1 1.3-1.5 2-.1.2-.3.5-.4.7-.1.2-.2.5-.4.8-.1.1-.1.2-.1.4 0 .1-.1.2-.1.3-.1.3-.2.6-.3 1-.1.2-.1.5-.2.8 0 .1 0 .3-.1.4 0 .1 0 .3-.1.4 0 .2-.1.5-.1.7v1.1c0 7.2 5.8 13 13 13 .4 0 .8 0 1.2-.1 1.2-.1 2.4-.4 3.5-.8.1 0 .2-.1.3-.1.3-.1.6-.2.8-.4.3-.1.5-.3.8-.4.2-.1.4-.3.6-.4.2-.1.4-.3.6-.4.2-.1.4-.3.6-.4.2-.2.4-.3.5-.5.2-.2.4-.3.5-.5.2-.2.3-.4.5-.5.2-.2.3-.4.5-.6.1-.2.3-.4.4-.6.2-.2.3-.5.4-.7l.3-.6c.1-.2.2-.5.3-.7.3-.6.5-1.3.7-1.9.1-.3.1-.6.2-.9.1-.8.2-1.5.2-2.3.3-7.3-5.5-13.2-12.7-13.2zm0 18.7c-3.1 0-5.7-2.5-5.7-5.7 0-3.1 2.5-5.7 5.7-5.7 3.1 0 5.7 2.5 5.7 5.7s-2.5 5.7-5.7 5.7z"/>
        <path id="Minus-Pin" class="boardSt15" d="M80.4 15.5c.1-.1.1-.1 0 0v-.6c0-.2-.1-.5-.1-.7 0-.1-.1-.3-.1-.4-.2-1.2-.6-2.4-1.2-3.5l-.3-.6c-.1-.2-.2-.4-.3-.5-.1-.2-.2-.3-.3-.4-.2-.3-.4-.5-.6-.8-.2-.2-.4-.5-.6-.7-2.4-2.5-5.7-4.1-9.5-4.1-7.2 0-13.1 5.8-13.1 13.1 0 .6 0 1.2.1 1.8v.1c0 .1 0 .2.1.4 0 .3.1.6.2.8 0 .2.1.4.2.6 0 .1.1.3.1.4.1.4.3.9.5 1.3.1.2.2.4.3.5.1.2.2.3.3.5.1.2.2.3.3.5.1.1.1.2.2.4.5.7 1 1.3 1.6 1.9.2.2.4.4.6.5.2.2.4.3.6.5l.9.6c.3.2.5.3.8.5.1 0 .1.1.2.1.3.2.6.3.9.4.3.1.6.3 1 .4.4.1.8.2 1.2.4.3.1.6.1.9.2.5.1 1 .2 1.6.2h.7c7.2 0 13.1-5.8 13.1-13.1-.2-.2-.2-.5-.3-.7zm-13 6.4c-3.1 0-5.7-2.5-5.7-5.7 0-3.1 2.5-5.7 5.7-5.7 3.1 0 5.7 2.5 5.7 5.7s-2.6 5.7-5.7 5.7z"/>
        <path id="Pin_3" class="boardSt15" d="M233.7 97.7c-.6-.2-1.3-.4-2-.5-.1 0-.2 0-.4-.1-.6-.1-1.2-.1-1.8-.1h-.9c-.4 0-.7 0-1.1.1-.3.1-.6.1-1 .2-.2 0-.3.1-.5.1-.4.1-.8.2-1.2.4-.2.1-.5.2-.7.3s-.5.2-.7.4c-.2.1-.5.2-.7.4-.2.2-.5.3-.7.5-.2.2-.5.3-.7.5-.1.1-.2.2-.4.3-.2.1-.3.3-.4.4-.1.1-.2.1-.2.2-2.4 2.4-3.8 5.6-3.8 9.2 0 7.2 5.8 13 13 13h1.2c.3 0 .6 0 .8-.1.3 0 .6-.1.8-.2.1 0 .2 0 .3-.1.3-.1.5-.1.8-.2.2-.1.4-.1.6-.2 5-1.8 8.5-6.6 8.5-12.2.1-5.7-3.6-10.6-8.8-12.3zm-4.1 18c-3.1 0-5.7-2.5-5.7-5.7s2.5-5.7 5.7-5.7c3.1 0 5.7 2.5 5.7 5.7s-2.6 5.7-5.7 5.7z"/>
        <path id="Pin_2" class="boardSt15" d="M188.2 200.7c0-.2-.1-.3-.1-.5-.1-.6-.3-1.1-.5-1.6-.1-.1-.1-.2-.2-.3-.3-.6-.6-1.2-1-1.8-.1-.1-.1-.2-.2-.3-.6-.9-1.2-1.6-2-2.3-.1-.1-.3-.2-.4-.4-.2-.2-.4-.3-.6-.5-.2-.1-.3-.2-.5-.4l-.9-.6c-.2-.1-.3-.2-.5-.2-.3-.2-.7-.3-1-.5-.2-.1-.3-.1-.5-.2-.4-.2-.8-.3-1.3-.4-.2-.1-.3-.1-.5-.1-.3-.1-.5-.1-.8-.1-.2 0-.4 0-.6-.1H174.5c-.3 0-.7 0-1 .1-.2 0-.4 0-.5.1-.6.1-1.2.2-1.7.4-.2.1-.4.1-.6.2-.2.1-.4.2-.6.2l-.6.3c-1.9.9-3.6 2.3-4.9 4l-.6.9c-.3.5-.6 1-.8 1.5-.2.4-.4.9-.5 1.4-.1.2-.1.3-.2.5-.3 1.2-.5 2.4-.5 3.7 0 7.3 5.9 13.2 13.2 13.2s13.2-5.9 13.2-13.2c.2-1.1.1-2.1-.2-3zm-12.9 8.6c-3.1 0-5.7-2.5-5.7-5.7 0-3.1 2.5-5.7 5.7-5.7s5.7 2.5 5.7 5.7-2.5 5.7-5.7 5.7z"/>
        <path id="Pin_1" class="boardSt15" d="m80.4 200.5-.3-.9v-.1c-.1-.3-.2-.5-.3-.8 0-.1-.1-.1-.1-.2-.1-.3-.2-.5-.4-.8-.2-.3-.4-.7-.6-1-.2-.2-.3-.5-.5-.7-.2-.2-.3-.5-.5-.7-.1-.1-.2-.2-.2-.3-.2-.2-.3-.4-.5-.6l-.6-.6c-.3-.2-.6-.5-.9-.7-.3-.2-.5-.4-.8-.6-.3-.2-.6-.3-.9-.5-.3-.2-.6-.3-.9-.4-.8-.3-1.6-.6-2.4-.8-.2 0-.3-.1-.5-.1s-.3-.1-.5-.1-.3 0-.5-.1c-.4 0-.9-.1-1.3-.1-.5 0-.9 0-1.4.1-.2 0-.4 0-.7.1-.7.1-1.3.2-1.9.4-1.2.4-2.4 1-3.5 1.7-.2.1-.3.2-.5.4-.2.1-.3.3-.5.4-.2.1-.3.3-.5.4-.2.1-.3.3-.5.4-.1.1-.3.3-.4.5l-1.2 1.5c-.2.4-.5.7-.7 1.1l-.3.6c-.2.4-.3.8-.5 1.2-.5 1.4-.8 3-.8 4.6 0 7.4 6 13.3 13.3 13.3s13.3-6 13.3-13.3c-.1-1.2-.3-2.3-.5-3.3zm-12.9 9c-3.2 0-5.7-2.5-5.7-5.7 0-3.1 2.6-5.7 5.7-5.7s5.7 2.6 5.7 5.7-2.6 5.7-5.7 5.7z"/>
        <path id="Pin_0" class="boardSt15" d="M13.3 96.9h-.7c-.2 0-.4 0-.6.1-.8.1-1.6.2-2.4.5C4.2 99 .2 104.1.2 110c0 5.4 3.3 10.1 8 12.1.4.2.8.3 1.2.4l1.2.3c.2.1.4.1.7.1.2 0 .4.1.6.1.4 0 .9.1 1.3.1 7.2 0 13.1-5.8 13.1-13.1.1-7.2-5.7-13.1-13-13.1zm0 18.8c-3.1 0-5.7-2.5-5.7-5.7s2.5-5.7 5.7-5.7 5.7 2.5 5.7 5.7-2.5 5.7-5.7 5.7z"/>
    </g>
    <g id="JacDac">
        <path class="boardSt15" d="M92.3 187.3c.1-.3.2-.6.1-.9-.1-.8-.8-1.3-1.6-1.3h-.2c-.9.2-1.4 1-1.3 1.8.1.3.2.6.4.8l1.7 9.5c.1.6.7 1 1.3.9h.3c.6-.1 1-.7.9-1.3l-1.6-9.5zm-1.4.4c-.5 0-1-.4-1-1s.5-1 1-1 1 .4 1 1c0 .5-.5 1-1 1z" id="LWPOLYLINE_00000056389708305240723870000015083357615805203126_"/>
        <path class="boardSt15" d="M95.8 186.7c.1-.3.2-.6.1-.9-.2-.8-1-1.4-1.8-1.3-.9.2-1.4 1-1.3 1.8.1.3.2.6.4.8l1.9 10.9c.1.6.7 1 1.3.9l.3-.1c.6-.1 1-.7.9-1.3l-1.8-10.8zm-1.4.3c-.5 0-1-.4-1-1s.5-1 1-1 1 .4 1 1-.4 1-1 1z" id="ARC_00000097474104168688435380000017146066176934872713_"/>
        <path class="boardSt15" d="M99.4 186.1c.1-.3.2-.6.1-.9-.1-.3-.2-.6-.4-.8-.3-.4-.8-.5-1.4-.4-.8.2-1.4 1-1.3 1.8.1.3.2.6.4.8l1.9 10.9c.1.6.7 1 1.3.9l.3-.1c.6-.1 1-.7.9-1.3l-1.8-10.9zm-1.4.3c-.5 0-1-.5-1-1 0-.6.4-1 1-1s1 .4 1 1c-.1.6-.5 1-1 1z" id="LWPOLYLINE_00000170966461034420328180000007072736512868471690_"/>
        <path class="boardSt15" d="M148.7 184.5c-.8-.1-1.7.4-1.8 1.3-.1.3 0 .6.1.9l-1.9 10.9c-.1.6.3 1.2.9 1.3l.3.1c.6.1 1.2-.3 1.3-.9l1.9-10.9c.2-.2.4-.5.4-.8.2-.9-.3-1.7-1.2-1.9zm-.2 2.5c-.5 0-1-.4-1-1s.4-1 1-1 1 .4 1 1-.5 1-1 1z" id="LINE_00000067943469928557821020000008144218218959454621_"/>
        <path class="boardSt15" d="M145.2 183.9c-.5-.1-1.1.1-1.4.5-.2.2-.3.5-.4.8-.1.3 0 .6.1.9l-1.7 9.5c-.1.6.3 1.2.9 1.3h.3c.6.1 1.2-.3 1.3-.9l1.7-9.5c.2-.2.4-.5.4-.8.2-.9-.4-1.7-1.2-1.8zm-.3 2.5c-.6 0-1-.4-1-1 0-.2.1-.5.2-.6.2-.2.4-.3.7-.3.5 0 1 .4 1 1s-.3.9-.9.9z" id="LWPOLYLINE_00000111881289479611605620000015351086674710880703_"/>
        <path class="boardSt15" d="M152.3 185.1h-.3c-.8 0-1.4.5-1.5 1.3-.1.3 0 .6.1.9l-1.9 10.9c-.1.6.3 1.2.9 1.3l.3.1c.6.1 1.2-.3 1.3-.9l1.9-10.9c.2-.2.4-.5.4-.8.2-.9-.4-1.7-1.2-1.9zm-.3 2.6c-.5 0-1-.4-1-1s.4-1 1-1 1 .4 1 1c0 .5-.5 1-1 1z" id="LWPOLYLINE_00000115515919514279782110000016854648703813804954_"/>
    </g>
    <g id="Steckleiste">
        <path d="M67.7 156.1v13c0 .3.3.6.6.6h108c.3 0 .6-.3.6-.6v-13c0-.3-.3-.6-.6-.6h-108c-.4 0-.6.3-.6.6zm56.3 1.1v3.6h-3.6v-3.6h3.6zM73.6 168H70v-3.6h3.6v3.6zm0-7.2H70v-3.6h3.6v3.6zm7.2 7.2h-3.6v-3.6h3.6v3.6zm0-7.2h-3.6v-3.6h3.6v3.6zM88 168h-3.6v-3.6H88v3.6zm0-7.2h-3.6v-3.6H88v3.6zm7.2 7.2h-3.6v-3.6h3.6v3.6zm0-7.2h-3.6v-3.6h3.6v3.6zm7.2 7.2h-3.6v-3.6h3.6v3.6zm0-7.2h-3.6v-3.6h3.6v3.6zm7.2 7.2H106v-3.6h3.6v3.6zm0-7.2H106v-3.6h3.6v3.6zm7.2 7.2h-3.6v-3.6h3.6v3.6zm0-7.2h-3.6v-3.6h3.6v3.6zm7.2 7.2h-3.6v-3.6h3.6v3.6zm7.2 0h-3.6v-3.6h3.6v3.6zm0-7.2h-3.6v-3.6h3.6v3.6zm7.2 7.2h-3.6v-3.6h3.6v3.6zm0-7.2h-3.6v-3.6h3.6v3.6zm7.2 7.2H142v-3.6h3.6v3.6zm0-7.2H142v-3.6h3.6v3.6zm7.2 7.2h-3.6v-3.6h3.6v3.6zm0-7.2h-3.6v-3.6h3.6v3.6zm7.2 7.2h-3.6v-3.6h3.6v3.6zm0-7.2h-3.6v-3.6h3.6v3.6zm7.2 7.2h-3.6v-3.6h3.6v3.6zm0-7.2h-3.6v-3.6h3.6v3.6zm7.2 7.2h-3.6v-3.6h3.6v3.6zm0-7.2h-3.6v-3.6h3.6v3.6z"/>
        <g id="Aussen">
            <path d="M70 164.4v3.6h3.6v-3.6H70zm3.1 3h-2.4V165h2.4v2.4zM77.2 164.4v3.6h3.6v-3.6h-3.6zm3.1 3h-2.4V165h2.4v2.4zM84.4 164.4v3.6H88v-3.6h-3.6zm3.1 3H85V165h2.5v2.4zM91.6 164.4v3.6h3.6v-3.6h-3.6zm3.1 3h-2.4V165h2.4v2.4zM98.8 164.4v3.6h3.6v-3.6h-3.6zm3.1 3h-2.5V165h2.5v2.4zM106 164.4v3.6h3.6v-3.6H106zm3.1 3h-2.4V165h2.4v2.4zM113.2 164.4v3.6h3.6v-3.6h-3.6zm3.1 3h-2.4V165h2.4v2.4zM120.4 164.4v3.6h3.6v-3.6h-3.6zm3.1 3H121V165h2.5v2.4zM127.6 164.4v3.6h3.6v-3.6h-3.6zm3.1 3h-2.4V165h2.4v2.4zM134.8 164.4v3.6h3.6v-3.6h-3.6zm3.1 3h-2.5V165h2.5v2.4zM142 164.4v3.6h3.6v-3.6H142zm3.1 3h-2.4V165h2.4v2.4zM149.2 164.4v3.6h3.6v-3.6h-3.6zm3.1 3h-2.5V165h2.5v2.4zM156.4 164.4v3.6h3.6v-3.6h-3.6zm3.1 3H157V165h2.5v2.4zM163.6 164.4v3.6h3.6v-3.6h-3.6zm3.1 3h-2.5V165h2.5v2.4zM170.8 164.4v3.6h3.6v-3.6h-3.6zm3.1 3h-2.5V165h2.5v2.4zM70 157.2v3.6h3.6v-3.6H70zm3.1 3h-2.4v-2.5h2.4v2.5zM77.2 157.2v3.6h3.6v-3.6h-3.6zm3.1 3h-2.4v-2.5h2.4v2.5zM84.4 157.2v3.6H88v-3.6h-3.6zm3.1 3H85v-2.5h2.5v2.5zM91.6 157.2v3.6h3.6v-3.6h-3.6zm3.1 3h-2.4v-2.5h2.4v2.5zM98.8 157.2v3.6h3.6v-3.6h-3.6zm3.1 3h-2.5v-2.5h2.5v2.5zM106 157.2v3.6h3.6v-3.6H106zm3.1 3h-2.4v-2.5h2.4v2.5zM113.2 157.2v3.6h3.6v-3.6h-3.6zm3.1 3h-2.4v-2.5h2.4v2.5zM120.4 157.2v3.6h3.6v-3.6h-3.6zm3.1 3H121v-2.5h2.5v2.5zM127.6 157.2v3.6h3.6v-3.6h-3.6zm3.1 3h-2.4v-2.5h2.4v2.5zM134.8 157.2v3.6h3.6v-3.6h-3.6zm3.1 3h-2.5v-2.5h2.5v2.5zM142 157.2v3.6h3.6v-3.6H142zm3.1 3h-2.4v-2.5h2.4v2.5zM149.2 157.2v3.6h3.6v-3.6h-3.6zm3.1 3h-2.5v-2.5h2.5v2.5zM156.4 157.2v3.6h3.6v-3.6h-3.6zm3.1 3H157v-2.5h2.5v2.5zM163.6 157.2v3.6h3.6v-3.6h-3.6zm3.1 3h-2.5v-2.5h2.5v2.5zM170.8 157.2v3.6h3.6v-3.6h-3.6zm3.1 3h-2.5v-2.5h2.5v2.5z"/>
        </g>
        <g id="Innen">
            <path class="boardSt16" d="M70.6 165H73v2.5h-2.4zM77.8 165h2.4v2.5h-2.4zM85 165h2.5v2.5H85zM92.2 165h2.4v2.5h-2.4zM99.4 165h2.5v2.5h-2.5zM106.6 165h2.4v2.5h-2.4zM113.8 165h2.4v2.5h-2.4zM121 165h2.5v2.5H121zM128.2 165h2.4v2.5h-2.4zM135.4 165h2.5v2.5h-2.5zM142.6 165h2.4v2.5h-2.4zM149.8 165h2.5v2.5h-2.5zM157 165h2.5v2.5H157zM164.2 165h2.5v2.5h-2.5zM171.4 165h2.5v2.5h-2.5zM70.6 157.8H73v2.5h-2.4zM77.8 157.8h2.4v2.5h-2.4zM85 157.8h2.5v2.5H85zM92.2 157.8h2.4v2.5h-2.4zM99.4 157.8h2.5v2.5h-2.5zM106.6 157.8h2.4v2.5h-2.4zM113.8 157.8h2.4v2.5h-2.4zM121 157.8h2.5v2.5H121zM128.2 157.8h2.4v2.5h-2.4z"/>
            <path id="_x3C_Pfad_x3E_" class="boardSt16" d="M137.9 160.2h-2.5v-2.5h2.5v2.5z"/>
            <path class="boardSt16" d="M142.6 157.8h2.4v2.5h-2.4zM149.8 157.8h2.5v2.5h-2.5zM157 157.8h2.5v2.5H157zM164.2 157.8h2.5v2.5h-2.5zM171.4 157.8h2.5v2.5h-2.5z"/>
        </g>
        <g id="Fuesse">
            <path class="boardSt17" d="M71.1 169.7h1.4v3.1h-1.4zM78.3 169.7h1.4v3.1h-1.4zM85.5 169.7h1.4v3.1h-1.4zM92.7 169.7h1.4v3.1h-1.4zM99.9 169.7h1.4v3.1h-1.4zM107.1 169.7h1.4v3.1h-1.4zM114.3 169.7h1.4v3.1h-1.4zM121.5 169.7h1.4v3.1h-1.4zM128.7 169.7h1.4v3.1h-1.4zM135.9 169.7h1.4v3.1h-1.4zM143.1 169.7h1.4v3.1h-1.4zM150.3 169.7h1.4v3.1h-1.4zM157.5 169.7h1.4v3.1h-1.4zM164.7 169.7h1.4v3.1h-1.4zM171.9 169.7h1.4v3.1h-1.4zM71.1 152.4h1.4v3.1h-1.4zM78.3 152.4h1.4v3.1h-1.4zM85.5 152.4h1.4v3.1h-1.4zM92.7 152.4h1.4v3.1h-1.4zM99.9 152.4h1.4v3.1h-1.4zM107.1 152.4h1.4v3.1h-1.4zM114.3 152.4h1.4v3.1h-1.4zM121.5 152.4h1.4v3.1h-1.4zM128.7 152.4h1.4v3.1h-1.4zM135.9 152.4h1.4v3.1h-1.4zM143.1 152.4h1.4v3.1h-1.4zM150.3 152.4h1.4v3.1h-1.4zM157.5 152.4h1.4v3.1h-1.4zM164.7 152.4h1.4v3.1h-1.4zM171.9 152.4h1.4v3.1h-1.4z"/>
        </g>
    </g>
    <g id="Mikrofon">
        <path d="M203.5 113.7v7.2c0 .3-.3.6-.6.6h-9.2c-.3 0-.6-.3-.6-.6v-7.2c0-.3.3-.6.6-.6h9.2c.3.1.6.3.6.6z" style="fill:#c77c11"/>
        <path class="boardSt15" d="M203.2 113.9v6.8c0 .3-.2.5-.5.5H194c-.3 0-.5-.2-.5-.5v-6.8c0-.3.2-.5.5-.5h8.7c.3 0 .5.2.5.5z"/>
        <circle cx="195.5" cy="117.3" r=".6"/>
    </g>
    <circle cx="195.5" cy="117.3" r=".6"/>
    <path class="boardSt14" d="m186.2 100.2-2.6-2.6 3.1-3.1 2.6 2.6-3.1 3.1zM202.1 84.3l-2.6-2.6 3.1-3.1 2.6 2.6-3.1 3.1zM195.2 109.3l-2.6-2.6 3.1-3.1 2.6 2.6-3.1 3.1zM211.1 93.3l-2.6-2.6 3.1-3.1 2.6 2.6-3.1 3.1zM172.2 63.3l-1.2-2.6 11.6-5.4 1.2 2.6-11.6 5.4zM174.6 68.5l-1.2-2.6 11.6-5.4 1.2 2.6-11.6 5.4zM177 73.6l-1.2-2.6 11.6-5.4 1.2 2.6-11.6 5.4zM179.4 78.8l-1.2-2.6 11.6-5.4 1.2 2.6-11.6 5.4zM180.2 130.8l7.8 6.1-1.7 2.2-7.8-6.1 1.7-2.2zM189.5 145.6l7.6 5.9-2.6 3.4-7.6-5.9 2.6-3.4zM201.2 130.6l7.6 5.9-2.6 3.4-7.6-5.9 2.6-3.4zM183.7 126.3l7.8 6.1-1.7 2.2-7.8-6.1 1.7-2.2zM158.9 125.3v.3l-.1.3-.2.2-.3.1H153.1l-.3-.1-.2-.2-.1-.3V120.4l.1-.3.2-.2.3-.1H158.3l.3.1.2.2.1.3V125.3zM179 125.3v.3l-.1.3-.2.2-.3.1H173.2l-.3-.1-.2-.2-.1-.3V120.4l.1-.3.2-.2.3-.1H178.4l.3.1.2.2.1.3V125.3zM179 105.2v.3l-.1.3-.2.2-.3.1H173.2l-.3-.1-.2-.2-.1-.3V100.3l.1-.3.2-.2.3-.1H178.4l.3.1.2.2.1.3V105.2zM158.9 105.2v.3l-.1.3-.2.2-.3.1H153.1l-.3-.1-.2-.2-.1-.3V100.3l.1-.3.2-.2.3-.1H158.3l.3.1.2.2.1.3V105.2zM65.4 76.3l-1.2 2.6-11.6-5.4 1.2-2.6 11.6 5.4zM67.8 71.1l-1.2 2.6L55 68.3l1.2-2.6 11.6 5.4zM70.2 66 69 68.5l-11.6-5.4 1.2-2.6L70.2 66zM72.6 60.8l-1.2 2.6L59.8 58l1.2-2.6 11.6 5.4zM73 155.6h-2.5v-5.2H73v5.2zM73 173.6h-2.5v-5.2H73v5.2zM80.2 155.6h-2.5v-5.2h2.5v5.2zM80.2 173.6h-2.5v-5.2h2.5v5.2zM87.4 155.6h-2.5v-5.2h2.5v5.2zM87.4 173.6h-2.5v-5.2h2.5v5.2zM94.7 155.6h-2.5v-5.2h2.5v5.2zM94.7 173.6h-2.5v-5.2h2.5v5.2zM101.9 155.6h-2.5v-5.2h2.5v5.2zM101.9 173.6h-2.5v-5.2h2.5v5.2zM109.1 155.6h-2.5v-5.2h2.5v5.2zM109.1 173.6h-2.5v-5.2h2.5v5.2zM116.3 155.6h-2.5v-5.2h2.5v5.2zM116.3 173.6h-2.5v-5.2h2.5v5.2zM123.5 155.6H121v-5.2h2.5v5.2zM123.5 173.6H121v-5.2h2.5v5.2zM130.7 155.6h-2.5v-5.2h2.5v5.2zM130.7 173.6h-2.5v-5.2h2.5v5.2zM137.9 155.6h-2.5v-5.2h2.5v5.2zM137.9 173.6h-2.5v-5.2h2.5v5.2zM145.1 155.6h-2.5v-5.2h2.5v5.2zM145.1 173.6h-2.5v-5.2h2.5v5.2zM152.3 155.6h-2.5v-5.2h2.5v5.2zM152.3 173.6h-2.5v-5.2h2.5v5.2zM159.5 155.6H157v-5.2h2.5v5.2zM159.5 173.6H157v-5.2h2.5v5.2zM166.7 155.6h-2.5v-5.2h2.5v5.2zM166.7 173.6h-2.5v-5.2h2.5v5.2zM173.9 155.6h-2.5v-5.2h2.5v5.2zM173.9 173.6h-2.5v-5.2h2.5v5.2zM49.3 106.7l-2.6 2.6-3.1-3.1 2.6-2.6 3.1 3.1zM33.3 90.7l-2.6 2.6-3.1-3.1 2.6-2.6 3.1 3.1zM58.3 97.6l-2.6 2.6-3.1-3.1 2.6-2.6 3.1 3.1zM42.4 81.7l-2.6 2.6-3.1-3.1 2.6-2.6 3.1 3.1zM59.4 32.9h3.4v4h-3.4v-4zM59.4 39.2h3.4v4h-3.4v-4zM64.2 39.2h3.4v4h-3.4v-4zM64.2 32.9h3.4v4h-3.4v-4z"/>
    <path id="Lautsprecher_00000097491445093581913290000018287520246302512032_" d="M158.1 125h15.1c.2 0 .3-.1.4-.2l3.9-3.9c.1-.1.2-.3.2-.4v-15.1c0-.2-.1-.3-.2-.4l-3.9-3.9c-.1-.1-.3-.2-.4-.2h-15.1c-.2 0-.3.1-.4.2l-3.9 3.9c-.1.1-.2.3-.2.4v15.1c0 .2.1.3.2.4l3.9 3.9c.1.1.3.2.4.2z"/>
    <path d="m87.5 120.3-13.2 13.2c-.2.2-.6.2-.8 0l-13.2-13.2c-.2-.2-.2-.6 0-.8l13.2-13.2c.2-.2.6-.2.8 0l13.2 13.2c.2.2.2.6 0 .8z" id="Anwendungs-Prozessor"/>
    <g id="Taste_B">
        <path class="boardSt19" d="m193.6 106.8 1.4 1.4 1.1-1.1.2-.2.2-.2.1-.1.1-.1.2-.2.3-.2.8-1-1.4-1.4-1.1 1.2-.2.2h-.1l-.1.2-.2.2-.2.2-.2.2zM208.7 91.7l1.4 1.4.9-.9.2-.2.2-.2.1-.1.1-.1.2-.2.2-.2 1.1-1.1-1.4-1.4-.9.9-.2.1-.2.2-.2.3-.1.1-.1.1-.2.2zM199.7 82.7l1.3 1.4 1-.9.2-.2.2-.2.1-.1.1-.1.4-.5.2-.2.9-.8-1.4-1.4-1.1 1.1-.2.1-.2.3-.2.1v.1l-.2.1-.3.3zM184.6 97.7l1.4 1.4 1-1h.1V98l.6-.5.2-.2.2-.3.9-.9-1.4-1.4-1.1 1.2-.2.2h-.1l-.1.2-.2.2-.2.1z"/>
        <path d="M195.3 97.4c1.9 1.9 5.1 1.9 7 0 1.9-1.9 1.9-5.1 0-7-1.9-1.9-5.1-1.9-7 0-1.9 2-1.9 5.1 0 7z" style="fill:#c43b3a"/>
        <path class="boardSt17" d="m187.3 94.4.3.3 1.4 1.4 7.6 7.6 1.4 1.4.3.3c.3.3.7.3 1 0l11-11c.3-.3.3-.7 0-1l-.3-.3-1.4-1.4-7.6-7.6-1.4-1.4-.3-.3c-.3-.3-.7-.3-1 0l-11 11c-.3.3-.3.7 0 1zm12.6-8.2c-.6.6-1.4.6-2 0-.6-.5-.6-1.4 0-2 .6-.5 1.4-.5 2 0 .5.6.5 1.5 0 2zm6.6 6.7c.5-.6 1.4-.6 2 0 .5.6.5 1.4 0 2-.6.6-1.5.6-2 0-.5-.5-.5-1.4 0-2zm-8.6 8.7c.6-.6 1.4-.6 2 0 .6.6.6 1.4 0 2s-1.4.6-2 0c-.6-.5-.6-1.4 0-2zm-2.6-11.2c1.9-1.9 5.1-1.9 7 0 1.9 1.9 1.9 5.1 0 7-1.9 1.9-5.1 1.9-7 0-1.9-1.9-1.9-5 0-7zm-6.1 2.5c.6-.6 1.4-.6 2 0 .6.6.6 1.4 0 2-.6.6-1.4.6-2 0-.6-.5-.6-1.4 0-2z"/>
        <path d="M189.2 94.9c.6.6 1.4.6 2 0 .6-.6.6-1.4 0-2-.6-.6-1.4-.6-2 0-.6.6-.6 1.5 0 2zM197.9 86.2c.6.6 1.4.6 2 0 .6-.5.6-1.4 0-2-.6-.5-1.4-.5-2 0-.6.6-.6 1.5 0 2zM206.5 94.9c.5.6 1.4.6 2 0 .5-.6.5-1.4 0-2-.6-.6-1.5-.6-2 0s-.5 1.5 0 2zM197.9 103.6c.6.6 1.4.6 2 0s.6-1.4 0-2c-.6-.6-1.4-.6-2 0-.6.6-.6 1.5 0 2z"/>
    </g>
    <g id="Grove_x5F_rechts">
        <path class="boardSt21" d="m187.2 48.6-1.6.7-.4-1-1.3.6-.8-1.6L186 46zM200.2 76.6l-2.8 1.3-.7-1.5 1.3-.6-.5-1 1.5-.8z"/>
        <path class="boardSt22" d="m199 74-1.5.7-1.3.6-5.5 2.6-.4.2-.8.4-1.5.7-2.3 1.1-2.2-4.7 2.3-1-.6-1.3 1.6-.7.6 1.2.7 1.6-1.6.7-.5.2.7 1.6.6-.3 9.5-4.4-1.1-2.3-.4-.8-.6-1.3-1.7-3.7-.6-1.3-1.7-3.6-.6-1.2-1.7-3.8-.6-1.3-.4-.7-1.1-2.3-9.5 4.4-.5.2.7 1.6.6-.3 1.5-.7.7 1.6.6 1.2-1.5.8-.6-1.3-2.3 1.1-2.2-4.7 2.3-1v-.1l1.6-.7.7-.3 5.9-2.8 1.3-.6 1.6-.7 1.8 3.9.3.7.6 1.3 1.8 3.7.6 1.3 1.6 3.6.6 1.3 1.8 3.7.6 1.3.3.8z"/>
        <path class="boardSt21" d="m177.2 52 .5 1-1.6.7v.1l-2.3 1-1.2-2.5 2.3-1.1 2.3-1.1.8 1.5zM191.5 80.7l-2.3 1-2.3 1.1-1.2-2.5 2.3-1.1 1.5-.7.5 1 .8-.4z"/>
        <path class="boardSt23" d="m195.7 70.9-.4-.8-.6-1.3-1.7-3.7-.6-1.3-1.7-3.6-.6-1.3-1.7-3.7-.6-1.3-.4-.8-1.1-2.3-9.5 4.4-.5.2.7 1.5.5-.2 1.5-.7.7 1.5.6 1.3.4.8 1.4 2.9.6 1.3 1.7 3.6.6 1.3 1.4 3 .3.8.6 1.3.7 1.5-1.5.7-.5.2.7 1.5.5-.2 9.5-4.4-1-2.2z"/>
        <path class="boardSt24" d="m185 56.8-1.2.6-.6-1.3.2-.1.8-.4.2-.1zM187.4 61.8l-.2.1h-.1l-.7.4-.3.1-.6-1.3 1.3-.6zM189.7 66.7l-1.3.6-.6-1.3.2-.1.8-.4.2-.1zM192 71.7l-.3.1-.7.4-.3.1-.6-1.3 1.3-.6z"/>
        <path class="boardSt17" d="m178.9 59.7-5.2 2.4-1.1.2-.4-.8.9-.7 2.9-1.3 2.3-1.1.6 1.3z"/>
        <path class="boardSt21" d="m186.8 72.6-1.6.7-.3-.8-.7-1.5-.7-1.5-.6-1.2-1.7-3.6-.6-1.3-.7-1.5-.7-1.5-.3-.7 1.5-.8.4.8 1.4 3 .5 1.2v.1l1.7 3.5v.1l.6 1.2 1.4 3z"/>
        <path class="boardSt17" d="m179.2 65.6-3.1 1.5-1.2.2-.3-.8.9-.7 3.1-1.5z"/>
        <path class="boardSt23" d="m184.2 71-2.1.9-.7-1.4-.6-1.3-1.6-3.6-.6-1.3-.7-1.4 2-1 .7 1.5.6 1.3 1.7 3.6.6 1.2z"/>
        <path class="boardSt17" d="m181.4 70.5-3 1.4-1.2.3-.4-.8.9-.7 3.1-1.5zM185.8 74.6l-2.3 1-2.8 1.4-1.2.2-.3-.8.9-.7 5.1-2.4z"/>
        <path class="boardSt19" d="m183.1 47.3.8 1.6 1.3-.6.4 1-7.9 3.7-.5-1 .8-.4-.8-1.5zM197.5 74.8l.5 1-1.3.6.7 1.5-5.9 2.8-.7-1.6-.8.4-.5-1 .8-.4.4-.2 5.5-2.6 1.3-.6"/>
    </g>
    <g id="Grove_x5F_links_00000016053385867061381090000005071653326402074504_">
        <path class="boardSt21" d="m56.4 48.9 1.5.7.5-1 1.3.6.7-1.5-2.8-1.4z"/>
        <path style="fill:#d2caa4" d="m43.3 76.9 2.9 1.3.7-1.5-1.3-.6.5-1-1.6-.7z"/>
        <path style="fill:#e5e0c0" d="m44.5 74.4 1.6.7 1.3.6 5.4 2.5.5.2.7.4 1.6.7 2.3 1.1L60 76l-2.3-1.1.6-1.3-1.5-.7-.6 1.3-.7 1.5 1.5.7.5.3-.7 1.5-.5-.2-9.5-4.5 1.1-2.3.3-.8.6-1.2 1.8-3.8.6-1.2 1.6-3.6.6-1.3 1.8-3.8.6-1.2.3-.8 1.1-2.3 9.5 4.4.5.2-.7 1.6-.5-.2-1.5-.8-.8 1.6-.6 1.3 1.6.7.6-1.3 2.3 1.1 2.1-4.7-2.3-1-1.5-.7-.8-.4-5.9-2.8-1.3-.6-1.5-.7-1.8 3.9-.4.7-.6 1.3-1.7 3.8-.6 1.2-1.7 3.6-.6 1.3-1.7 3.7-.6 1.3-.4.8z"/>
        <path class="boardSt21" d="m66.4 52.3-.5 1.1 1.5.7 2.3 1 1.2-2.5-2.3-1.1-2.3-1.1-.7 1.6zM52.1 81l2.3 1.1 2.3 1 1.2-2.5-2.3-1.1-1.6-.7-.4 1-.8-.3z"/>
        <path class="boardSt23" d="m46.8 73.5 9.5 4.4.5.2.7-1.5-.5-.2-1.5-.7.7-1.5.6-1.3.3-.8 1.4-3 .6-1.3 1.7-3.6.6-1.3 1.4-2.9.4-.8.6-1.3.7-1.5 1.5.7.5.2.7-1.5-.5-.2-9.5-4.4-1.1 2.3-.4.8-.6 1.3-1.7 3.7-.6 1.3-1.7 3.6-.6 1.3-1.7 3.7-.6 1.3-.4.8-1 2.2z"/>
        <path class="boardSt24" d="m58.5 57.1 1.3.6.6-1.3-.3-.1-.7-.4-.3-.1zM56.2 62.1l.1.1h.1l.8.4.3.1.6-1.3-1.3-.6zM53.9 67l1.3.6.6-1.3-.3-.1-.7-.4-.3-.1zM51.6 72l.2.1.8.4.3.1.6-1.3-1.3-.6z"/>
        <path class="boardSt17" d="m64.7 60 5.1 2.4 1.2.2.3-.8-.9-.7-2.8-1.3-2.3-1.1-.6 1.3z"/>
        <path class="boardSt21" d="m56.8 72.9 1.5.7.4-.8.7-1.5.7-1.4.6-1.3 1.6-3.6.6-1.3.7-1.4.7-1.6.4-.7-1.6-.7-.3.7-1.4 3-.6 1.3-1.7 3.6-.6 1.2v.1l-1.3 2.9z"/>
        <path class="boardSt17" d="m64.4 65.9 3.1 1.5 1.1.2.4-.8-.9-.7-3.1-1.4z"/>
        <path class="boardSt23" d="m59.4 71.3 2.1 1 .6-1.5.6-1.3 1.7-3.6.6-1.2.7-1.5-2.1-.9-.7 1.4-.6 1.3-1.6 3.6-.6 1.3z"/>
        <path class="boardSt17" d="m62.1 70.8 3.1 1.5 1.2.2.3-.8-.9-.7-3.1-1.5zM57.7 74.9 60 76l2.9 1.3 1.1.2.4-.8-.9-.7-5.2-2.4z"/>
        <path class="boardSt19" d="m60.4 47.7-.7 1.5-1.3-.6-.5 1 8 3.8.5-1.1-.8-.3.7-1.6zM46.1 75.1l-.5 1 1.3.6-.7 1.5 5.9 2.8.7-1.5.8.3.4-1-.7-.4-.5-.2-5.4-2.5-1.3-.6"/>
    </g>
    <g id="RGB-LEDs">
        <g id="RGB-LED">
            <path class="boardSt27" d="M108.7 129.8c0 .3.2.6.6.7v1.4c-.3.1-.6.4-.6.7 0 .3.2.6.6.7v.4c0 .2-.1.3-.3.3h-5.7c-.2 0-.3-.1-.3-.3v-.4c.3-.1.6-.4.6-.7 0-.3-.2-.6-.6-.7v-1.4c.3-.1.6-.4.6-.7 0-.3-.2-.6-.6-.7v-.4c0-.2.1-.3.3-.3h5.7c.2 0 .3.1.3.3v.4c-.4.1-.6.4-.6.7z"/>
            <path class="boardSt28" d="M104.4 128.9h2v.9h-2z"/>
            <path class="boardSt29" d="M104 128.4h4.1v5.7H104z"/>
        </g>
        <g id="RGB-LED_00000158739878078468973790000015867953343331084186_">
            <path class="boardSt27" d="M122.9 129.8c0 .3.2.6.6.7v1.4c-.3.1-.6.4-.6.7 0 .3.2.6.6.7v.4c0 .2-.1.3-.3.3h-5.7c-.2 0-.3-.1-.3-.3v-.4c.3-.1.6-.4.6-.7 0-.3-.2-.6-.6-.7v-1.4c.3-.1.6-.4.6-.7 0-.3-.2-.6-.6-.7v-.4c0-.2.1-.3.3-.3h5.7c.2 0 .3.1.3.3v.4c-.4.1-.6.4-.6.7z"/>
            <path class="boardSt28" d="M118.6 128.9h2v.9h-2z"/>
            <path class="boardSt29" d="M118.2 128.4h4.1v5.7h-4.1z"/>
        </g>
        <g id="RGB-LED_00000128446559331746034690000000773108269480224647_">
            <path class="boardSt27" d="M137 129.8c0 .3.2.6.6.7v1.4c-.3.1-.6.4-.6.7 0 .3.2.6.6.7v.4c0 .2-.1.3-.3.3h-5.7c-.2 0-.3-.1-.3-.3v-.4c.3-.1.6-.4.6-.7 0-.3-.2-.6-.6-.7v-1.4c.3-.1.6-.4.6-.7 0-.3-.2-.6-.6-.7v-.4c0-.2.1-.3.3-.3h5.7c.2 0 .3.1.3.3v.4c-.3.1-.6.4-.6.7z"/>
            <path class="boardSt28" d="M132.8 128.9h2v.9h-2z"/>
            <path class="boardSt29" d="M132.4 128.4h4.1v5.7h-4.1z"/>
        </g>
    </g>
    <g id="Kleine_LEDs">
        <use xlink:href="#Calliope_x5F_3_x5F_Small_x5F_LED" width="1.4" height="2.8" id="XMLID_00000081620067914281799210000005554354341423305093_" x="-.7" y="-1.4" transform="matrix(1 0 0 -1 101.563 26.86)" style="overflow:visible"/>
        <use xlink:href="#Calliope_x5F_3_x5F_Small_x5F_LED" width="1.4" height="2.8" id="XMLID_00000042696738688737490220000013228333503857632937_" x="-.7" y="-1.4" transform="matrix(1 0 0 -1 98.725 26.86)" style="overflow:visible"/>
        <use xlink:href="#Calliope_x5F_3_x5F_Small_x5F_LED" width="1.4" height="2.8" id="XMLID_00000094584626844950144800000001489643496691546543_" x="-.7" y="-1.4" transform="matrix(0 -1 -1 0 205.514 110.04)" style="overflow:visible"/>
    </g>
    <path class="boardSt14" d="m80.4 54.8-.1-.1V52.3h.8V54.7h-.7zM81.5 54.8l-.1-.1V52.3h.8V54.7h-.7zM82.7 54.8l-.1-.1V52.3h.6V54.7h-.5zM83.8 54.8l-.1-.1V52.3h.8V54.7h-.7zM84.9 54.8l-.1-.1V52.3h.8V54.7h-.7zM86.1 54.8l-.1-.1V52.3h.8V54.7h-.7zM87.2 54.8l-.1-.1V52.3h.8V54.7h-.7zM88.3 54.8l-.1-.1V52.3h.8V54.7h-.7zM89.5 54.8l-.1-.1V52.3h.8V54.7h-.7zM90.6 54.8l-.1-.1V52.3h.7V54.7H90.6zM91.6 52.1l-.1-.1v-.8H93.9v1H91.6zM91.6 51h-.1v-.8H93.9v.8H91.6zM91.6 49.9l-.1-.1V49H93.9v.8H91.6zM91.6 48.7l-.1-.1v-.8H93.9v.8H91.6zM91.6 47.6l-.1-.1v-.8H93.9v.8H91.6zM91.6 46.5l-.1-.1v-.8H93.9v.8H91.6zM91.6 45.3l-.1-.1v-.8H93.9v.8H91.6zM91.6 44.2l-.1-.1v-.8H93.9V44.2H91.6zM91.6 43.1l-.1-.1v-.8H93.9v.8H91.6zM91.6 41.9l-.1-.1V41H93.9v.8H91.6zM90.6 40.9l-.1-.1V38.4h.7V40.8H90.6zM89.5 40.9l-.1-.1V38.4h.8V40.8h-.7zM88.3 40.9l-.1-.1V38.4h.8V40.8h-.7zM87.2 40.9l-.1-.1V38.4h.8V40.8h-.7zM86.1 40.9l-.1-.1V38.4h.8V40.8h-.7zM84.9 40.9l-.1-.1V38.4h.8V40.8h-.7zM83.8 40.9l-.1-.1V38.4h.8V40.8h-.7zM82.7 40.9l-.1-.1V38.4h.6V40.8h-.5zM81.5 40.9l-.1-.1V38.4h.8V40.8h-.7zM80.4 40.9l-.1-.1V38.4h.8V40.8h-.7zM77.8 41.9l-.1-.1V41H80.1v.8H77.8zM77.8 43.1l-.2-.1v-.8H80v.8h-2.2zM77.8 44.2l-.1-.1v-.8H80.1V44.2H77.8zM77.8 45.3l-.1-.1v-.8H80.1v.8H77.8zM77.8 46.5l-.1-.1v-.8H80.1v.8H77.8zM77.8 47.6l-.1-.1v-.8H80.1v.8H77.8zM77.8 48.7l-.1-.1v-.8H80.1v.8H77.8zM77.8 49.9l-.1-.1V49H80.1v.8H77.8zM77.8 51h-.2v-.8H80v.8h-2.2zM77.8 52.1l-.1-.1v-.8H80.1v1H77.8z"/>
    <g id="USB-C_Vorne">
        <g id="Loetpads">
            <path class="boardSt30" d="M129.9 40.7h.6v2h-.6zM128.3 40.7h.6v2h-.6zM127.6 40.7h.6v2h-.6zM126.1 40.7h.6v2h-.6zM130.6 40.7h.6v2h-.6zM124.7 40.7h.6v2h-.6zM123.3 40.7h.6v2h-.6zM121.9 40.7h.6v2h-.6zM120.4 40.7h.6v2h-.6zM119 40.7h.6v2h-.6zM117.6 40.7h.6v2h-.6zM116.2 40.7h.6v2h-.6zM114.7 40.7h.6v2h-.6zM114 40.7h.6v2h-.6zM112.4 40.7h.6v2h-.6zM111.7 40.7h.6v2h-.6z"/>
        </g>
        <path id="Bruecke_x5F_unten_x5F_links" class="boardSt19" d="M105.1 38.4h3.7v2.3h-3.7z"/>
        <path id="Brücke_x5F_unten_x5F_rechts" class="boardSt19" d="M134.1 38.4h3.7v2.3h-3.7z"/>
        <path id="USB" class="boardSt17" d="M134.1 22.3v18.4h-4.8c-.1 0-.1 0-.2-.1-.1 0-.1 0-.2-.1-.1 0-.1-.1-.1-.1l-.1-.1c-.1-.1-.2-.3-.2-.5v-1.6c0-.2-.2-.4-.4-.4h-3.4c-.2 0-.4.2-.4.4v.2c0 .1 0 .2.1.3l.1.1H125.4v1.8h-8.3V39h.7c.1 0 .2 0 .3-.1l.1-.1.1-.1V38.4c0-.2-.2-.4-.4-.4h-3.4c-.2 0-.4.2-.4.4V40c0 .2 0 .3-.2.5l-.1.1-.1.1c-.1 0-.1.1-.1.1-.1 0-.1 0-.2.1h-4.8V22.3h25.5z"/>
        <path id="Bruecke_x5F_oben_x5F_links" class="boardSt19" d="M137.8 26.5v1h-.7c-.2 0-.4.2-.4.4v.6c0 .2.2.4.4.4h.7v1h-3.7v-3.4h3.7z"/>
        <path id="Bruecke_x5F_oben_x5F_links_00000046317777153269327780000000551385265532689583_" class="boardSt19" d="M108.8 26.5v3.4h-3.7v-1h.7c.2 0 .4-.2.4-.4V28c0-.2-.2-.4-.4-.4h-.7v-1h3.7z"/>
        <path class="boardSt19" d="M118.1 35.6v.9c0 .2-.1.3-.3.3H115c-.2 0-.3-.1-.3-.3v-.9c0-.2.1-.3.3-.3h2.9c.1 0 .2.1.2.3zM128.2 35.6v.8c0 .2-.1.3-.3.3H125c-.2 0-.3-.1-.3-.3v-.8c0-.2.1-.3.3-.3h2.9c.2 0 .3.1.3.3z"/>
        <path class="boardSt31" d="M129.5 40.7h-4V39H124.6l-.1-.1c-.1-.1-.1-.2-.1-.3v-.2c0-.2.2-.4.4-.4h3.4c.2 0 .4.2.4.4V40c0 .2 0 .3.2.5l.1.1.1.1s.1.1.2.1c0 0 .1 0 .2.1 0-.2.1-.2.1-.2zM118.4 38.3V38.6s0 .1-.1.1l-.1.1c-.1.1-.2.1-.3.1h-.7v1.8h-4 .2c.1 0 .1 0 .2-.1 0 0 .1 0 .1-.1l.1-.1.1-.1c.1-.1.2-.3.2-.5v-1.6c0-.2.2-.4.4-.4h3.4c.3.1.5.3.5.5z"/>
    </g>
    <g id="Reset-Taste">
        <g id="Button">
            <path class="boardSt31" d="m145.4 24.4-3.3 3.3-.1.1h-.1V25c0-.3.2-.6.6-.6h2.9zM151.1 32.9v2.8c0 .3-.3.6-.6.6h-2.8v-.1l3.4-3.3zM151.1 24.9v2.8l-3.4-3.4h2.8c.3.1.6.3.6.6zM145.4 36.3h-2.8c-.3 0-.6-.2-.6-.6v-2.8l.1.1.1.1 3.2 3.2z"/>
            <path class="boardSt17" d="M147.7 24.4h-2.3l-.1.1-3.2 3.2-.1.1h-.1v5.1l.1.1.1.1 3.2 3.2.1.1h2.3v-.1L151 33v-5.1l-3.3-3.5zm2.3 7.1c0 1.9-1.5 3.4-3.4 3.4s-3.4-1.5-3.4-3.4v-2.3c0-1.9 1.5-3.4 3.4-3.4s3.4 1.5 3.4 3.4v2.3z"/>
            <path d="M150 29.2v2.3c0 1.9-1.5 3.4-3.4 3.4s-3.4-1.5-3.4-3.4v-2.3c0-1.9 1.5-3.4 3.4-3.4s3.4 1.5 3.4 3.4z" style="fill:#fff"/>
        </g>
        <g id="Loetpads_00000043420228105706981810000009200446934696239295_">
            <path class="boardSt33" d="M144.4 36.3v.6c0 .1-.1.1-.1.1h-1.6c-.1 0-.1-.1-.1-.1v-.6h1.8zM150.5 36.3v.6c0 .1-.1.1-.1.1h-1.6c-.1 0-.1-.1-.1-.1v-.6h1.8zM150.5 23.8v.6h-1.8v-.6c0-.1.1-.1.1-.1h1.6s.1 0 .1.1zM144.4 23.8v.6h-1.8v-.6c0-.1.1-.1.1-.1h1.6c.1 0 .1 0 .1.1z"/>
        </g>
    </g>
    <g id="Oscillator_x5F_Interface">
        <path class="boardSt15" d="M67 34v8c0 .4-.3.7-.7.7h-5.7c-.4 0-.7-.3-.7-.7v-8c0-.4.3-.7.7-.7h5.7c.4 0 .7.3.7.7z"/>
        <path class="boardSt19" d="M66.9 34.1v7.8c0 .4-.3.7-.7.7h-5.6c-.4 0-.7-.3-.7-.7v-7.8c0-.4.3-.7.7-.7h5.6c.4 0 .7.3.7.7z"/>
    </g>
    <path class="boardSt14" d="M81.6 136.6v3.4h-4v-3.4h4zM75.4 136.6v3.4h-4v-3.4h4zM75.4 141.5v3.4h-4v-3.4h4zM81.6 141.5v3.4h-4v-3.4h4z"/>
    <g id="Oscillator_x5F_Interface_00000142174677229098753570000000672237598536849289_">
        <path class="boardSt15" d="M80.6 144.2h-8c-.4 0-.7-.3-.7-.7v-5.7c0-.4.3-.7.7-.7h8c.4 0 .7.3.7.7v5.7c-.1.4-.4.7-.7.7z"/>
        <path class="boardSt19" d="M80.5 144.1h-7.8c-.4 0-.7-.3-.7-.7v-5.6c0-.4.3-.7.7-.7h7.8c.4 0 .7.3.7.7v5.6c-.1.4-.4.7-.7.7z"/>
    </g>
    <g id="Batterie">
        <path class="boardSt17" d="m189.4 131.6-.9 1.2-.2-.2-.2-.2-.2-.1-.3-.3-.2-.1-.2-.1v-.1l-3.6-2.7v-.1l-.7-.9.5-.6 1.1.4 3.2 2.6.3.2h.1l.1.1v.1h.1l.2.1.2.3.2.1.3.2zM185.9 136.1l-.9 1.1-.1-.1-.3-.2-.2-.2-.3-.2-.2-.1-.2-.2-3.6-2.8-.7-.9.5-.7 1.1.5 3.6 2.8.1.1h.1l.2.2.3.2.2.2.2.2z"/>
        <path class="boardSt21" d="m188.8 140.4-.9 1.2-1.3-1.1-.8 1.1-2.6-2 .8-1.1.9-1.2 2.6 2.1zM194.3 133.4l-.9 1.2-1.4-1.1-2.5-2 .9-1.1.8-1.1 2.6 2-.8 1.1zM181.7 141.5l-1.4 1.8-3.6-2.8 1.4-1.8z"/>
        <path transform="rotate(-52.17 191.61 125.114)" class="boardSt21" d="M190.5 122.8h2.3v4.5h-2.3z"/>
        <path class="boardSt22" d="m206.6 137.2-.7.9-1 1.3-.3.4-.8 1-2.7 3.4-1 1.4-2.7 3.4-.8 1-.3.4-1 1.3-.7.9-.2-.1-.3-.2-1.3-1.1-.9 1.1-4.9-3.8-5.4-4.2-1.3-1 1.4-1.8 1.5-1.9 2.6 2 1.3 1 5 4 .9-1.1.9-1.2-2.2-1.7-2.9-2.2-1.3-1-2.6-2.1.1-.1.9-1.1 2.6-3.3.9-1.2.1-.1 2.5 2 1.4 1.1 5 3.9.9-1.2.9-1-5.1-3.9-1.3-1.1-2.6-2 1.5-1.9 1.4-1.8 1.3 1 5.4 4.3 4.9 3.8-.9 1.1 1.4 1.1.3.2z"/>
        <path class="boardSt23" d="m200.2 136.3-.9 1-.9 1.2-5-3.9.9-1.2-1.3-1 .8-1.1 1.3 1.1zM193.9 144.3l-.9 1.2-.9 1.1-5-4-1.3-1 .8-1.1 1.3 1.1.9-1.2 2.9 2.2z"/>
    </g>
    <path transform="rotate(-45.001 49.61 93.472)" style="fill-rule:evenodd;clip-rule:evenodd;fill:#1e1e21" d="M45.6 88.7h8.1v9.4h-8.1z"/>
    <g id="Taste_A">
        <path class="boardSt19" d="m48.3 106.8-1.4 1.4-1-1.1h-.1l-.1-.2-.3-.2-.1-.1-.1-.1-.2-.2-.2-.2-.9-.9 1.4-1.4 1.2 1.1.1.2.1.1.1.1.3.2.2.2.2.2zM33.3 91.7l-1.4 1.4-.9-.9-.3-.2-.2-.2v-.1l-.2-.1-.2-.2-.1-.2-1.1-1.1 1.4-1.4.8.9.2.2.2.2.2.2.2.1v.1l.2.2zM42.3 82.7l-1.4 1.4-.9-.9-.3-.2-.2-.2v-.1l-.1-.1-.5-.5-.2-.1-.8-.9 1.4-1.4 1.1 1.1.1.1.2.3.2.1.1.1.1.2.3.2zM57.3 97.7l-1.4 1.4-1-1-.1-.1-.6-.5-.1-.2-.3-.3-.9-.9 1.4-1.4 1.2 1.2.2.2.2.2.2.2.1.1z"/>
        <path d="M46.6 97.4c-1.9 1.9-5.1 1.9-7 0-1.9-1.9-1.9-5.1 0-7 1.9-1.9 5.1-1.9 7 0 1.9 2 1.9 5.1 0 7z" style="fill:#3aa5c6"/>
        <path class="boardSt17" d="m54.6 93.4-11-11c-.3-.3-.7-.3-1 0l-.3.3-1.4 1.4-7.6 7.6-1.4 1.4-.3.3c-.3.3-.3.7 0 1l11 11c.3.3.7.3 1 0l.3-.3 1.4-1.4 7.6-7.6 1.4-1.4.3-.3c.3-.2.3-.7 0-1zm-12.5-9.1c.6-.5 1.4-.5 2 0 .6.6.6 1.5 0 2-.6.6-1.4.6-2 0-.6-.6-.6-1.5 0-2zm-6.7 10.6c-.5.6-1.4.6-2 0-.5-.6-.5-1.4 0-2 .6-.6 1.5-.6 2 0 .6.6.6 1.5 0 2zm8.7 8.7c-.6.6-1.4.6-2 0s-.6-1.4 0-2c.6-.6 1.4-.6 2 0 .6.6.6 1.5 0 2zm2.5-6.2c-1.9 1.9-5.1 1.9-7 0-1.9-1.9-1.9-5.1 0-7 1.9-1.9 5.1-1.9 7 0 1.9 2 1.9 5.1 0 7zm6.2-2.5c-.6.6-1.4.6-2 0-.6-.6-.6-1.4 0-2 .6-.6 1.4-.6 2 0 .5.6.5 1.5 0 2z"/>
        <path d="M52.8 94.9c-.6.6-1.4.6-2 0-.6-.6-.6-1.4 0-2 .6-.6 1.4-.6 2 0 .5.6.5 1.5 0 2zM44.1 86.3c-.6.6-1.4.6-2 0-.6-.5-.6-1.4 0-2 .6-.5 1.4-.5 2 0 .6.5.6 1.4 0 2zM35.4 94.9c-.5.6-1.4.6-2 0-.5-.6-.5-1.4 0-2 .6-.6 1.5-.6 2 0 .6.6.6 1.5 0 2zM44.1 103.6c-.6.6-1.4.6-2 0s-.6-1.4 0-2c.6-.6 1.4-.6 2 0 .6.6.6 1.5 0 2z"/>
    </g>
    <g id="Interface-Prozessor">
        <g id="LED-Matrix" transform="matrix(0 .437 -.45 0 165.2 60.4)">
            <path id="LED_0_4" class="ledOn" d="M10 147h10v6H10z"/>
            <path id="LED_1_4" class="ledOn" d="M36 147h10v6H36z"/>
            <path id="LED_2_4" class="ledOn" d="M62 147h10v6H62z"/>
            <path id="LED_3_4" class="ledOn" d="M88 147h10v6H88z"/>
            <path id="LED_4_4" class="ledOn" d="M114 147h10v6h-10z"/>
            <path id="LED_0_3" class="ledOn" d="M10 122h10v6H10z"/>
            <path id="LED_1_3" class="ledOn" d="M36 122h10v6H36z"/>
            <path id="LED_2_3" class="ledOn" d="M62 122h10v6H62z"/>
            <path id="LED_3_3" class="ledOn" d="M88 122h10v6H88z"/>
            <path id="LED_4_3" class="ledOn" d="M114 122h10v6h-10z"/>
            <path id="LED_0_2" class="ledOn" d="M10 97h10v6H10z"/>
            <path id="LED_1_2" class="ledOn" d="M36 97h10v6H36z"/>
            <path id="LED_2_2" class="ledOn" d="M62 97h10v6H62z"/>
            <path id="LED_3_2" class="ledOn" d="M88 97h10v6H88z"/>
            <path id="LED_4_2" class="ledOn" d="M114 97h10v6h-10z"/>
            <path id="LED_0_1" class="ledOn" d="M10 71h10v6H10z"/>
            <path id="LED_1_1" class="ledOn" d="M36 71h10v6H36z"/>
            <path id="LED_2_1" class="ledOn" d="M62 71h10v6H62z"/>
            <path id="LED_3_1" class="ledOn" d="M88 71h10v6H88z"/>
            <path id="LED_4_1" class="ledOn" d="M114 71h10v6h-10z"/>
            <path id="LED_0_0" class="ledOn" d="M10 46h10v6H10z"/>
            <path id="LED_1_0" class="ledOn" d="M36 46h10v6H36z"/>
            <path id="LED_2_0" class="ledOn" d="M62 46h10v6H62z"/>
            <path id="LED_3_0" class="ledOn" d="M88 46h10v6H88z"/>
            <path id="LED_4_0" class="ledOn" d="M114 46h10v6h-10z"/>
        </g>
        <path d="M92.8 40.3v13c0 .3-.3.6-.6.6h-13c-.3 0-.6-.3-.6-.6v-13c0-.3.3-.6.6-.6h13c.4 0 .6.3.6.6z"/>
    </g>
    <path d="M275.6 293.2c-.5-1.4-1.6-3-4-3s-3.5 1.7-3.9 3.2c-.4 1.2-1.6 1.7-2.9 1.8-.6.1-1.3.2-2.1.3 3.5 3.1 8.1 5.9 13.1 5.3 2.9-.4 5.6-1.8 8-4.2-2.8-.9-4.6-1.3-5.8-1.4-1-.2-2-.9-2.4-2z" style="fill:none"/>
    <path d="M255 298.1c.3-.1.5-.2.8-.4l-.1-.1" style="fill:#54bdc2"/>
</svg>
